<?xml version="1.0" encoding="utf-8"?>
<!-- Generator: Adobe Illustrator 21.0.2, SVG Export Plug-In . SVG Version: 6.00 Build 0)  -->
<svg version="1.1" id="Calque_1" xmlns="http://www.w3.org/2000/svg" xmlns:xlink="http://www.w3.org/1999/xlink" x="0px" y="0px"
	 viewBox="0 0 300 100" style="enable-background:new 0 0 300 100;" xml:space="preserve">
<style type="text/css">
	.st0{display:none;}
	.st1{display:inline;fill:#4F7ABD;}
	.st2{display:none;fill:#4F7ABD;}
	.st3{fill:#FFFFFF;}
</style>
<g class="st0">
	<path class="st1" d="M112.4,67.6c0,1.1-0.6,1.5-1.5,1.5H107c-0.9,0-1.4-0.4-1.8-1.2L90.5,38.7c-0.7-1.4-1.7-3.2-2.2-4.6h-1.1
		c0.1,1.5,0.1,3.1,0.1,4.6v30.6h-3.6V32c0-1.1,0.6-1.5,1.5-1.5h3.8c0.9,0,1.4,0.4,1.8,1.2l14.4,28.6c0.8,1.5,1.8,3.4,2.5,5.2h1.2
		c-0.1-1.9-0.2-3.6-0.2-5.5V30.5h3.6v37.1H112.4z"/>
	<path class="st1" d="M144.8,55.6c0,10.4-3.3,14.3-12.4,14.3c-9.2,0-12.5-3.8-12.5-14.3c0-10.4,3.3-14.3,12.5-14.3
		C141.4,41.3,144.8,45.2,144.8,55.6z M123.5,55.6c0,8.5,2.2,11.2,8.7,11.2c6.5,0,8.7-2.7,8.7-11.2s-2.2-11.2-8.7-11.2
		C125.7,44.4,123.5,47.1,123.5,55.6z"/>
	<path class="st1" d="M156,56.1c-4.1-0.9-6.1-2.9-6.1-7.4c0-6.5,3.3-7.4,10.4-7.4c3.4,0.1,7.7,0.3,11.1,0.9l-0.3,2.5
		c-3.3-0.2-7-0.3-10.3-0.3c-5.4-0.1-7.4,0.1-7.4,4.3c0,3.2,1.4,4,4.1,4.5l8.3,1.5c4.2,0.9,6.3,2.8,6.3,7.3c0,6.7-3.8,7.6-11.3,7.6
		c-2.2,0-6-0.1-10.4-0.8l0.3-2.7c3,0.3,6,0.4,9.5,0.3c6.3-0.1,8.4-0.7,8.4-4.6c0-3.2-1.8-3.9-4.4-4.4L156,56.1z"/>
	<path class="st1" d="M199.9,69.2l-3.1-12.1c-0.8-2.5-2.1-3.4-4.5-3.4l-7-0.1v15.5h-7V30.5c4.4-0.4,7.4-0.6,14-0.6
		c9.5,0,13.5,2.5,13.5,11.3c0,5.7-1.9,9.1-7.2,9.7v0.3c1.9,0.4,4.3,2,5.2,5.7l3.4,12.1h-7.4V69.2z M192.3,48c5-0.1,6.5-1.4,6.5-6.2
		s-1.5-6-6.5-6h-7V48H192.3z"/>
	<path class="st1" d="M217.7,58.2c0.6,5,2.7,6,7.3,6c2.7,0,6.5-0.3,9.8-0.7l0.7,4.4c-2.9,1.4-7.8,1.9-11.3,1.9
		c-9.9,0-13.7-4-13.7-14.5c0-10.8,4-14.5,13.3-14.5c9,0,12.5,3.3,12.5,9.5c0,5-2.2,7.8-7.3,7.8H217.7z M227,53.5
		c2.2,0,2.4-1.8,2.4-3.2c0-2.9-1.2-4-5.4-4c-4.8,0-6.3,1.4-6.4,7.2H227z"/>
	<path class="st1" d="M263.9,69.2h-24V64l16.1-17h-15.9v-5.2h23.5V47l-16,17H264v5.2H263.9z"/>
	<path class="st1" d="M295,55.5C295,66,291.4,70,281.5,70c-9.9,0-13.6-3.9-13.6-14.5S271.6,41,281.5,41
		C291.4,40.9,295,44.9,295,55.5z M275,55.5c0,7.1,1.4,9.1,6.5,9.1c5,0,6.4-2,6.4-9.1s-1.5-9.1-6.4-9.1C276.4,46.4,275,48.3,275,55.5
		z"/>
</g>
<g class="st0">
	<path class="st1" d="M52.3,43.4c1,1.3,1.6,3.1,1.6,5.5v13.4h-4.7V49.7c0-1.4-0.2-2.4-0.6-3.1c-0.4-0.7-1.2-1.1-2.2-1.1
		c-0.8,0-1.7,0.2-2.5,0.7c-0.9,0.5-1.9,1.1-2.9,1.9l0,0.9v13.4h-4.7V49.7c0-1.4-0.2-2.4-0.6-3.1c-0.4-0.7-1.2-1.1-2.2-1.1
		c-1.5,0-3.3,0.9-5.6,2.8v14.1h-4.7V42.1h3.1l0.8,2.4c1.2-0.9,2.4-1.7,3.8-2.2c1.3-0.6,2.6-0.9,3.7-0.9c2.7,0,4.6,1,5.5,3
		c1.2-0.9,2.4-1.7,3.7-2.2c1.3-0.6,2.5-0.8,3.7-0.8C49.6,41.5,51.2,42.1,52.3,43.4z"/>
	<path class="st1" d="M62.6,64.2l1-2.8l-7.2-18.5l4.5-1.5l5.2,14.2l4.9-13.4H76l-9,23.4c-0.6,1.5-1.6,2.8-3,3.8
		c-1.4,1.1-3,1.8-4.7,2.2l-1.6-3.8c1.4-0.6,2.5-1.1,3.3-1.6C61.7,65.7,62.3,65,62.6,64.2z"/>
</g>
<path class="st2" d="M78.5,79.3c-7.4,7.4-17.6,12-28.9,12C27.1,91.3,8.8,73,8.8,50.5S27.1,9.7,49.6,9.7c11.3,0,21.5,4.6,28.9,11.9
	h5.1C75.4,12,63.2,5.9,49.6,5.9C25,5.9,5,25.9,5,50.5s20,44.6,44.6,44.6c13.6,0,25.8-6.1,34-15.8H78.5z"/>
<path class="st3" d="M211.1,21.7c7.4-7.4,17.6-12,28.9-12c22.5,0,40.8,18.3,40.8,40.8S262.5,91.3,240,91.3
	c-11.3,0-21.5-4.6-28.9-11.9H206c8.2,9.6,20.4,15.7,34,15.7c24.6,0,44.6-20,44.6-44.6S264.6,5.9,240,5.9c-13.6,0-25.8,6.1-34,15.8
	H211.1z"/>
<g>
	<g>
		<path class="st3" d="M22.1,53.2l-2.9,9.1h-3.9l9.4-28.2c0.2-0.6,0.7-1,1.4-1h3.9c0.7,0,1.2,0.4,1.4,1l9.4,28.2H37l-2.9-9.1H22.1z
			 M29.5,38.4c-0.3-0.8-0.5-1.6-0.7-2.4h-1.2l-0.7,2.4L23.2,50h10L29.5,38.4z"/>
		<path class="st3" d="M47.9,45c2.2-2.4,5.6-3.8,8.6-3.8c5,0,7.1,3.8,7.1,10.9c0,8-2.5,10.7-7.8,10.7c-2.6,0-5.2-0.7-7.6-2.1
			c0.1,1.4,0.1,2.7,0.1,4.2v6h-3.6V41.7h3L47.9,45z M48.2,58.4c2.6,0.8,4.4,1.3,6.6,1.3c3.6,0,5-1.5,5-7.6c0-5.8-1.3-7.8-4.6-7.8
			c-2.2,0-4.2,1.1-7,3.2V58.4z"/>
		<path class="st3" d="M72,53.8c0.4,4.9,2.3,6,6.5,6c2.2,0,5-0.2,7.2-0.5l0.4,2.4c-1.9,0.8-5.6,1.1-8,1.1c-7.1,0-9.9-3-9.9-10.9
			c0-8.1,2.8-10.8,9.5-10.8c6.2,0,8.8,2.3,8.8,6.7c0,3.7-1.5,5.8-4.9,5.8H72z M80.6,51c1.9,0,2.2-1.5,2.2-3c0-2.6-1.4-3.7-5.1-3.7
			c-4.3,0-5.8,1.5-5.9,6.7H80.6z"/>
		<path class="st3" d="M104.4,44.6h-1.2c-2.3,0-4.4,1-7.7,2.6v15.1h-3.6V41.7h2.8l0.4,3.3c3-2.4,6-3.8,8.8-3.8h0.9L104.4,44.6z"/>
		<path class="st3" d="M126.8,52c0,7.9-2.6,10.8-9.7,10.8c-7.1,0-9.7-2.9-9.7-10.8c0-7.9,2.6-10.8,9.7-10.8
			C124.2,41.2,126.8,44.2,126.8,52z M111.1,52c0,6,1.4,7.8,5.9,7.8s6-1.8,6-7.8s-1.5-7.8-6-7.8S111.1,46,111.1,52z"/>
		<path class="st3" d="M148.6,62.3l-2.3-9.1c-0.6-1.9-1.6-2.6-3.4-2.6l-5.2,0v11.7h-5.3V33.1c3.3-0.3,5.6-0.4,10.6-0.4
			c7.2,0,10.2,1.9,10.2,8.6c0,4.4-1.4,6.9-5.5,7.4v0.2c1.4,0.3,3.3,1.5,3.9,4.3l2.6,9.1H148.6z M142.8,46.3c3.7,0,4.9-1.1,4.9-4.7
			c0-3.6-1.2-4.5-4.9-4.5h-5.2v9.2H142.8z"/>
		<path class="st3" d="M162.9,54.1c0.4,3.8,2,4.5,5.5,4.5c2,0,5-0.2,7.5-0.5l0.5,3.3c-2.2,1.1-5.9,1.4-8.6,1.4
			c-7.5,0-10.4-3-10.4-10.9c0-8.2,3-10.9,10-10.9c6.7,0,9.4,2.5,9.4,7.2c0,3.7-1.7,5.9-5.5,5.9H162.9z M169.9,50.5
			c1.7,0,1.9-1.3,1.9-2.4c0-2.2-0.9-3-4.1-3c-3.6,0-4.7,1.1-4.9,5.5H169.9z"/>
		<path class="st3" d="M198.7,62.3h-18.1v-3.9l12.2-12.9h-12v-3.9h17.8v3.9l-12.2,12.9h12.4V62.3z"/>
		<path class="st3" d="M223,52c0,8-2.8,10.9-10.2,10.9c-7.5,0-10.3-3-10.3-10.9s2.8-11,10.3-11C220.3,41,223,44,223,52z M207.9,52
			c0,5.3,1.1,6.8,4.9,6.8c3.7,0,4.9-1.5,4.9-6.8c0-5.4-1.1-6.9-4.9-6.9C209,45.1,207.9,46.6,207.9,52z"/>
	</g>
	<g>
		<path class="st3" d="M243,74.3h-11.9c-0.5,0-1-0.4-1-1V46.4c0-2.9,1.5-5.6,4-7V35c0-1.1,0.9-2,2-2h2c1.1,0,2,0.9,2,2v4.4
			c2.5,1.5,4,4.1,4,7v26.9C244,73.8,243.6,74.3,243,74.3z M232.1,72.3h9.9V46.4c0-2.4-1.3-4.5-3.4-5.5c-0.3-0.2-0.5-0.5-0.5-0.9v-5
			h-2v5c0,0.4-0.2,0.7-0.5,0.9c-2.1,1.1-3.4,3.2-3.4,5.5V72.3z"/>
		<path class="st3" d="M256.9,74.3c-0.5,0-1-0.4-1-1v-8c0-0.5,0.4-1,1-1c0.5,0,1,0.4,1,1v8C257.9,73.8,257.5,74.3,256.9,74.3z"/>
		<path class="st3" d="M256.9,66.3c-0.1,0-0.1,0-0.2,0c-0.4-0.1-8.7-2.1-8.7-8.9c0-2.4,1.8-8.5,2-9.2c0.2-0.5,0.7-0.8,1.2-0.7
			c0.5,0.2,0.8,0.7,0.7,1.2c-0.5,1.8-1.9,6.9-1.9,8.7c0,4.7,5.7,6.6,6.9,6.9c1.3-0.4,7-2.6,7-6.9c0-1.8-1.4-6.9-1.9-8.7
			c-0.2-0.5,0.1-1.1,0.7-1.2c0.5-0.2,1.1,0.1,1.2,0.7c0.2,0.7,2,6.9,2,9.2c0,6.4-8.3,8.8-8.7,8.9C257.1,66.3,257,66.3,256.9,66.3z"
			/>
		<rect x="249" y="53.4" class="st3" width="15.9" height="2"/>
		<path class="st3" d="M239,34.5h-4c-0.5,0-1-0.4-1-1v-4c0-0.5,0.4-1,1-1h4c0.5,0,1,0.4,1,1v4C240,34,239.6,34.5,239,34.5z
			 M236,32.5h2v-2h-2V32.5z"/>
		<path class="st3" d="M239,68.3h-4c-0.5,0-1-0.4-1-1V49.4c0-0.5,0.4-1,1-1h4c0.5,0,1,0.4,1,1v17.9C240,67.9,239.6,68.3,239,68.3z
			 M236,66.3h2V50.4h-2V66.3z"/>
	</g>
</g>
</svg>
