<?xml version="1.0" encoding="utf-8"?>
<!-- Generator: Adobe Illustrator 21.0.2, SVG Export Plug-In . SVG Version: 6.00 Build 0)  -->
<svg version="1.1" id="Calque_1" xmlns="http://www.w3.org/2000/svg" xmlns:xlink="http://www.w3.org/1999/xlink" x="0px" y="0px"
	 viewBox="0 0 120 120" style="enable-background:new 0 0 120 120;" xml:space="preserve">
<style type="text/css">
	.st0{display:none;fill:url(#SVGID_1_);}
	.st1{display:none;}
	.st2{display:inline;fill:url(#SVGID_2_);}
	.st3{display:inline;fill:url(#SVGID_3_);}
	.st4{display:inline;fill:url(#SVGID_4_);}
	.st5{display:inline;fill:url(#SVGID_5_);}
	.st6{display:inline;fill:url(#SVGID_6_);}
	.st7{display:inline;fill:url(#SVGID_7_);}
	.st8{display:inline;fill:url(#SVGID_8_);}
	.st9{display:inline;fill:url(#SVGID_9_);}
	.st10{display:inline;fill:url(#SVGID_10_);}
	.st11{display:inline;fill:url(#SVGID_11_);}
	.st12{display:inline;fill:url(#SVGID_12_);}
	.st13{display:inline;fill:url(#SVGID_13_);}
	.st14{display:inline;fill:url(#SVGID_14_);}
	.st15{display:inline;fill:url(#SVGID_15_);}
	.st16{display:inline;fill:url(#SVGID_16_);}
	.st17{display:inline;fill:url(#SVGID_17_);}
	.st18{display:inline;fill:url(#SVGID_18_);}
	.st19{display:inline;fill:url(#SVGID_19_);}
	.st20{display:inline;fill:url(#SVGID_20_);}
	.st21{display:inline;fill:url(#SVGID_21_);}
	.st22{display:inline;fill:url(#SVGID_22_);}
	.st23{display:inline;fill:url(#SVGID_23_);}
	.st24{display:inline;fill:url(#SVGID_24_);}
	.st25{display:inline;fill:url(#SVGID_25_);}
	.st26{display:inline;fill:url(#SVGID_26_);}
	.st27{display:inline;fill:url(#SVGID_27_);}
	.st28{display:inline;fill:url(#SVGID_28_);}
	.st29{display:inline;fill:url(#SVGID_29_);}
	.st30{display:inline;fill:url(#SVGID_30_);}
	.st31{display:inline;fill:url(#SVGID_31_);}
	.st32{display:none;fill:url(#SVGID_32_);}
	.st33{display:none;fill:url(#SVGID_33_);}
	.st34{fill:url(#SVGID_34_);}
	.st35{fill:url(#SVGID_35_);}
</style>
<linearGradient id="SVGID_1_" gradientUnits="userSpaceOnUse" x1="5.7214" y1="38.0375" x2="460.2799" y2="208.3331">
	<stop  offset="0" style="stop-color:#00B9C7"/>
	<stop  offset="0.9991" style="stop-color:#6D24FF"/>
</linearGradient>
<path class="st0" d="M98,86.9c-7.9,9.9-20.1,16.2-33.7,16.2c-23.8,0-43.1-19.3-43.1-43.1c0-23.8,19.3-43.1,43.1-43.1
	c13.6,0,25.8,6.3,33.7,16.2h3.5c-8.3-11.5-21.9-19-37.2-19C39,14.2,18.5,34.7,18.5,60c0,25.3,20.5,45.8,45.8,45.8
	c15.3,0,28.8-7.5,37.2-19H98z"/>
<g class="st1">
	<linearGradient id="SVGID_2_" gradientUnits="userSpaceOnUse" x1="-14.7683" y1="34.0099" x2="597.9155" y2="263.5457">
		<stop  offset="0" style="stop-color:#00B9C7"/>
		<stop  offset="0.9991" style="stop-color:#6D24FF"/>
	</linearGradient>
	<path class="st2" d="M87.4,49.2h-27c-0.5,0-0.9,0.4-0.9,0.9v34.2c0,0.5,0.4,0.9,0.9,0.9h27c0.5,0,0.9-0.4,0.9-0.9V50.1
		C88.3,49.6,87.9,49.2,87.4,49.2L87.4,49.2z M86.5,51v5.4H61.3v-1.8h10.8v-1.8H61.3V51H86.5z M61.3,83.4V58.2h25.2v25.2H61.3z
		 M61.3,83.4"/>
	<linearGradient id="SVGID_3_" gradientUnits="userSpaceOnUse" x1="-13.5285" y1="30.7005" x2="599.1553" y2="260.2362">
		<stop  offset="0" style="stop-color:#00B9C7"/>
		<stop  offset="0.9991" style="stop-color:#6D24FF"/>
	</linearGradient>
	<rect x="65.8" y="60" class="st3" width="2.7" height="1.8"/>
	<linearGradient id="SVGID_4_" gradientUnits="userSpaceOnUse" x1="-12.974" y1="29.2205" x2="599.7098" y2="258.7563">
		<stop  offset="0" style="stop-color:#00B9C7"/>
		<stop  offset="0.9991" style="stop-color:#6D24FF"/>
	</linearGradient>
	<rect x="70.3" y="60" class="st4" width="2.7" height="1.8"/>
	<linearGradient id="SVGID_5_" gradientUnits="userSpaceOnUse" x1="-12.4196" y1="27.7406" x2="600.2643" y2="257.2763">
		<stop  offset="0" style="stop-color:#00B9C7"/>
		<stop  offset="0.9991" style="stop-color:#6D24FF"/>
	</linearGradient>
	<rect x="74.8" y="60" class="st5" width="2.7" height="1.8"/>
	<linearGradient id="SVGID_6_" gradientUnits="userSpaceOnUse" x1="-11.8651" y1="26.2606" x2="600.8187" y2="255.7964">
		<stop  offset="0" style="stop-color:#00B9C7"/>
		<stop  offset="0.9991" style="stop-color:#6D24FF"/>
	</linearGradient>
	<rect x="79.3" y="60" class="st6" width="2.7" height="1.8"/>
	<linearGradient id="SVGID_7_" gradientUnits="userSpaceOnUse" x1="-15.1747" y1="35.0946" x2="597.5092" y2="264.6303">
		<stop  offset="0" style="stop-color:#00B9C7"/>
		<stop  offset="0.9991" style="stop-color:#6D24FF"/>
	</linearGradient>
	<rect x="64" y="64.5" class="st7" width="3.6" height="1.8"/>
	<linearGradient id="SVGID_8_" gradientUnits="userSpaceOnUse" x1="-14.5095" y1="33.319" x2="598.1744" y2="262.8547">
		<stop  offset="0" style="stop-color:#00B9C7"/>
		<stop  offset="0.9991" style="stop-color:#6D24FF"/>
	</linearGradient>
	<rect x="69.4" y="64.5" class="st8" width="3.6" height="1.8"/>
	<linearGradient id="SVGID_9_" gradientUnits="userSpaceOnUse" x1="-13.844" y1="31.5427" x2="598.8398" y2="261.0784">
		<stop  offset="0" style="stop-color:#00B9C7"/>
		<stop  offset="0.9991" style="stop-color:#6D24FF"/>
	</linearGradient>
	<rect x="74.8" y="64.5" class="st9" width="3.6" height="1.8"/>
	<linearGradient id="SVGID_10_" gradientUnits="userSpaceOnUse" x1="-13.1785" y1="29.7664" x2="599.5053" y2="259.3021">
		<stop  offset="0" style="stop-color:#00B9C7"/>
		<stop  offset="0.9991" style="stop-color:#6D24FF"/>
	</linearGradient>
	<rect x="80.2" y="64.5" class="st10" width="3.6" height="1.8"/>
	<linearGradient id="SVGID_11_" gradientUnits="userSpaceOnUse" x1="-16.3582" y1="38.2538" x2="596.3256" y2="267.7896">
		<stop  offset="0" style="stop-color:#00B9C7"/>
		<stop  offset="0.9991" style="stop-color:#6D24FF"/>
	</linearGradient>
	<rect x="64" y="68.1" class="st11" width="3.6" height="1.8"/>
	<linearGradient id="SVGID_12_" gradientUnits="userSpaceOnUse" x1="-15.693" y1="36.4783" x2="596.9908" y2="266.014">
		<stop  offset="0" style="stop-color:#00B9C7"/>
		<stop  offset="0.9991" style="stop-color:#6D24FF"/>
	</linearGradient>
	<rect x="69.4" y="68.1" class="st12" width="3.6" height="1.8"/>
	<linearGradient id="SVGID_13_" gradientUnits="userSpaceOnUse" x1="-15.0276" y1="34.702" x2="597.6562" y2="264.2377">
		<stop  offset="0" style="stop-color:#00B9C7"/>
		<stop  offset="0.9991" style="stop-color:#6D24FF"/>
	</linearGradient>
	<rect x="74.8" y="68.1" class="st13" width="3.6" height="1.8"/>
	<linearGradient id="SVGID_14_" gradientUnits="userSpaceOnUse" x1="-14.3621" y1="32.9257" x2="598.3217" y2="262.4614">
		<stop  offset="0" style="stop-color:#00B9C7"/>
		<stop  offset="0.9991" style="stop-color:#6D24FF"/>
	</linearGradient>
	<rect x="80.2" y="68.1" class="st14" width="3.6" height="1.8"/>
	<linearGradient id="SVGID_15_" gradientUnits="userSpaceOnUse" x1="-17.5426" y1="41.4151" x2="595.1412" y2="270.9508">
		<stop  offset="0" style="stop-color:#00B9C7"/>
		<stop  offset="0.9991" style="stop-color:#6D24FF"/>
	</linearGradient>
	<rect x="64" y="71.7" class="st15" width="3.6" height="1.8"/>
	<linearGradient id="SVGID_16_" gradientUnits="userSpaceOnUse" x1="-16.8774" y1="39.6395" x2="595.8065" y2="269.1753">
		<stop  offset="0" style="stop-color:#00B9C7"/>
		<stop  offset="0.9991" style="stop-color:#6D24FF"/>
	</linearGradient>
	<rect x="69.4" y="71.7" class="st16" width="3.6" height="1.8"/>
	<linearGradient id="SVGID_17_" gradientUnits="userSpaceOnUse" x1="-16.2119" y1="37.8632" x2="596.4719" y2="267.399">
		<stop  offset="0" style="stop-color:#00B9C7"/>
		<stop  offset="0.9991" style="stop-color:#6D24FF"/>
	</linearGradient>
	<rect x="74.8" y="71.7" class="st17" width="3.6" height="1.8"/>
	<linearGradient id="SVGID_18_" gradientUnits="userSpaceOnUse" x1="-15.5464" y1="36.0869" x2="597.1374" y2="265.6227">
		<stop  offset="0" style="stop-color:#00B9C7"/>
		<stop  offset="0.9991" style="stop-color:#6D24FF"/>
	</linearGradient>
	<rect x="80.2" y="71.7" class="st18" width="3.6" height="1.8"/>
	<linearGradient id="SVGID_19_" gradientUnits="userSpaceOnUse" x1="-18.7262" y1="44.5744" x2="593.9576" y2="274.1101">
		<stop  offset="0" style="stop-color:#00B9C7"/>
		<stop  offset="0.9991" style="stop-color:#6D24FF"/>
	</linearGradient>
	<rect x="64" y="75.3" class="st19" width="3.6" height="1.8"/>
	<linearGradient id="SVGID_20_" gradientUnits="userSpaceOnUse" x1="-18.061" y1="42.7988" x2="594.6229" y2="272.3346">
		<stop  offset="0" style="stop-color:#00B9C7"/>
		<stop  offset="0.9991" style="stop-color:#6D24FF"/>
	</linearGradient>
	<rect x="69.4" y="75.3" class="st20" width="3.6" height="1.8"/>
	<linearGradient id="SVGID_21_" gradientUnits="userSpaceOnUse" x1="-17.3955" y1="41.0225" x2="595.2883" y2="270.5583">
		<stop  offset="0" style="stop-color:#00B9C7"/>
		<stop  offset="0.9991" style="stop-color:#6D24FF"/>
	</linearGradient>
	<rect x="74.8" y="75.3" class="st21" width="3.6" height="1.8"/>
	<linearGradient id="SVGID_22_" gradientUnits="userSpaceOnUse" x1="-16.73" y1="39.2462" x2="595.9538" y2="268.782">
		<stop  offset="0" style="stop-color:#00B9C7"/>
		<stop  offset="0.9991" style="stop-color:#6D24FF"/>
	</linearGradient>
	<rect x="80.2" y="75.3" class="st22" width="3.6" height="1.8"/>
	<linearGradient id="SVGID_23_" gradientUnits="userSpaceOnUse" x1="-19.9098" y1="47.7336" x2="592.774" y2="277.2694">
		<stop  offset="0" style="stop-color:#00B9C7"/>
		<stop  offset="0.9991" style="stop-color:#6D24FF"/>
	</linearGradient>
	<rect x="64" y="78.9" class="st23" width="3.6" height="1.8"/>
	<linearGradient id="SVGID_24_" gradientUnits="userSpaceOnUse" x1="-19.2446" y1="45.9581" x2="593.4393" y2="275.4938">
		<stop  offset="0" style="stop-color:#00B9C7"/>
		<stop  offset="0.9991" style="stop-color:#6D24FF"/>
	</linearGradient>
	<rect x="69.4" y="78.9" class="st24" width="3.6" height="1.8"/>
	<linearGradient id="SVGID_25_" gradientUnits="userSpaceOnUse" x1="-18.5791" y1="44.1818" x2="594.1047" y2="273.7175">
		<stop  offset="0" style="stop-color:#00B9C7"/>
		<stop  offset="0.9991" style="stop-color:#6D24FF"/>
	</linearGradient>
	<rect x="74.8" y="78.9" class="st25" width="3.6" height="1.8"/>
	<linearGradient id="SVGID_26_" gradientUnits="userSpaceOnUse" x1="-17.9136" y1="42.4055" x2="594.7702" y2="271.9412">
		<stop  offset="0" style="stop-color:#00B9C7"/>
		<stop  offset="0.9991" style="stop-color:#6D24FF"/>
	</linearGradient>
	<rect x="80.2" y="78.9" class="st26" width="3.6" height="1.8"/>
	<linearGradient id="SVGID_27_" gradientUnits="userSpaceOnUse" x1="-8.6306" y1="17.627" x2="604.0532" y2="247.1627">
		<stop  offset="0" style="stop-color:#00B9C7"/>
		<stop  offset="0.9991" style="stop-color:#6D24FF"/>
	</linearGradient>
	<path class="st27" d="M36,43.8h9.9c0.5,0,0.9-0.4,0.9-0.9V33h30.6v12.6h1.8V32.1c0-0.5-0.4-0.9-0.9-0.9H45.9c-0.1,0-0.2,0-0.3,0.1
		h-0.1c-0.1,0.1-0.2,0.1-0.3,0.2L34.5,42.3c-0.1,0.1-0.1,0.2-0.2,0.3v0.1c0,0.1-0.1,0.2-0.1,0.3v9.9H36V43.8z M45,42h-7.8l7.8-7.8
		V42z M45,42"/>
	<linearGradient id="SVGID_28_" gradientUnits="userSpaceOnUse" x1="-20.0548" y1="48.1208" x2="592.629" y2="277.6565">
		<stop  offset="0" style="stop-color:#00B9C7"/>
		<stop  offset="0.9991" style="stop-color:#6D24FF"/>
	</linearGradient>
	<path class="st28" d="M56.8,69.9h-9.9V57.3c0-0.5-0.4-0.9-0.9-0.9H35.1c-0.5,0-0.9,0.4-0.9,0.9v27c0,0.5,0.4,0.9,0.9,0.9h21.6
		c0.5,0,0.9-0.4,0.9-0.9V70.8C57.7,70.3,57.3,69.9,56.8,69.9L56.8,69.9z M36,71.7h9v2.7h-9V71.7z M45,69.9h-9v-2.7h9V69.9z M45,65.4
		h-9v-2.7h9V65.4z M36,76.2h9v2.7h-9V76.2z M46.8,76.2h9v2.7h-9V76.2z M55.9,74.4h-9v-2.7h9V74.4z M36,58.2h9v2.7h-9V58.2z M36,80.7
		h9v2.7h-9V80.7z M55.9,83.4h-9v-2.7h9V83.4z M55.9,83.4"/>
	<linearGradient id="SVGID_29_" gradientUnits="userSpaceOnUse" x1="-4.9823" y1="7.8888" x2="607.7015" y2="237.4245">
		<stop  offset="0" style="stop-color:#00B9C7"/>
		<stop  offset="0.9991" style="stop-color:#6D24FF"/>
	</linearGradient>
	<rect x="68.5" y="35.7" class="st29" width="6.3" height="1.8"/>
	<linearGradient id="SVGID_30_" gradientUnits="userSpaceOnUse" x1="-7.0719" y1="13.4663" x2="605.6119" y2="243.0021">
		<stop  offset="0" style="stop-color:#00B9C7"/>
		<stop  offset="0.9991" style="stop-color:#6D24FF"/>
	</linearGradient>
	<rect x="58.6" y="40.2" class="st30" width="16.2" height="1.8"/>
	<linearGradient id="SVGID_31_" gradientUnits="userSpaceOnUse" x1="-10.162" y1="21.7147" x2="602.5218" y2="251.2504">
		<stop  offset="0" style="stop-color:#00B9C7"/>
		<stop  offset="0.9991" style="stop-color:#6D24FF"/>
	</linearGradient>
	<rect x="73.9" y="52.8" class="st31" width="2.7" height="1.8"/>
</g>
<linearGradient id="SVGID_32_" gradientUnits="userSpaceOnUse" x1="25.3348" y1="43.4424" x2="469.4855" y2="231.7093">
	<stop  offset="0" style="stop-color:#005EC7"/>
	<stop  offset="0.9991" style="stop-color:#6D66FF"/>
</linearGradient>
<path class="st32" d="M98.5,87.2c-8,10-20.3,16.4-34.1,16.4c-24.1,0-43.6-19.5-43.6-43.6c0-24.1,19.5-43.6,43.6-43.6
	c13.8,0,26.1,6.4,34.1,16.4h3.5c-8.4-11.6-22.1-19.2-37.6-19.2C38.8,13.6,18,34.4,18,60c0,25.6,20.8,46.4,46.4,46.4
	c15.5,0,29.2-7.6,37.6-19.2H98.5z"/>
<linearGradient id="SVGID_33_" gradientUnits="userSpaceOnUse" x1="25.2119" y1="43.7323" x2="469.3626" y2="231.9992">
	<stop  offset="0" style="stop-color:#005EC7"/>
	<stop  offset="0.9991" style="stop-color:#6D66FF"/>
</linearGradient>
<path class="st33" d="M82.7,56.3L77.1,51v-8.6h-6.5V45l-6.5-6L45.5,56.3c-0.3,0.2-0.3,0.7,0,0.9c0.2,0.3,0.7,0.3,0.9,0l2.2-2v21.6
	h31.2V55.2l2.2,2c0.1,0.1,0.3,0.2,0.4,0.2c0.2,0,0.3-0.1,0.5-0.2C83,56.9,83,56.5,82.7,56.3L82.7,56.3z M71.9,43.8h3.9v6.1l-3.9-3.6
	V43.8z M60.2,75.6V61.9c0-0.3,0.3-0.6,0.6-0.6h6.6c0.3,0,0.6,0.3,0.6,0.6v13.7H60.2z M78.4,75.6h-9.1V61.9c0-1.1-0.9-1.9-1.9-1.9
	h-6.6c-1.1,0-1.9,0.9-1.9,1.9v13.7h-9.1V54l14.3-13.3l9.3,8.6l3.7,3.4l1.3,1.2V75.6z M78.4,75.6"/>
<linearGradient id="SVGID_34_" gradientUnits="userSpaceOnUse" x1="26.2395" y1="46.7308" x2="378.9084" y2="169.3694">
	<stop  offset="0" style="stop-color:#005EC7"/>
	<stop  offset="0.9991" style="stop-color:#6D66FF"/>
</linearGradient>
<path class="st34" d="M98.5,87.2c-8,10-20.3,16.4-34.1,16.4c-24.1,0-43.6-19.5-43.6-43.6c0-24.1,19.5-43.6,43.6-43.6
	c13.8,0,26.1,6.4,34.1,16.4h3.5c-8.4-11.6-22.1-19.2-37.6-19.2C38.8,13.6,18,34.4,18,60c0,25.6,20.8,46.4,46.4,46.4
	c15.5,0,29.2-7.6,37.6-19.2H98.5z"/>
<g>
	<linearGradient id="SVGID_35_" gradientUnits="userSpaceOnUse" x1="25.649" y1="48.4289" x2="378.3179" y2="171.0676">
		<stop  offset="0" style="stop-color:#005EC7"/>
		<stop  offset="0.9991" style="stop-color:#6D66FF"/>
	</linearGradient>
	<path class="st35" d="M83.8,55.9c-0.1-1.1-1.4-2-4-2.6c0.1-0.2,0.1-0.4,0.1-0.6V48h0c-0.2-3.8-15.8-3.9-17.6-3.9
		c-1.8,0-17.3,0.1-17.6,3.9h0v4.6c0,1.2,1.6,2.2,4,2.9c0,0.1-0.1,0.2-0.1,0.3h0v4.6c-2.6,0.7-3.8,1.5-3.9,2.6h0v4.6
		c0,0.9,0.8,1.6,2.1,2.2c0,0.1-0.1,0.3-0.1,0.4h0v4.6c0,2.2,4.9,3.5,10.3,4.1c0,0,0.1,0,0.1,0c0,0,0,0,0,0c1,0.1,2.1,0.2,3.2,0.3
		c0,0,0,0,0.1,0c0,0,0,0,0,0c1.3,0.1,2.6,0.1,3.9,0.1c1.2,0,2.5,0,3.9-0.1c0,0,0,0,0,0c0,0,0,0,0.1,0c1-0.1,2.1-0.2,3.2-0.3
		c0,0,0,0,0,0c0,0,0.1,0,0.1,0c5.4-0.6,10.3-2,10.3-4.1v-4.6h0c0-0.8-0.7-1.5-2.1-2c0.1-0.2,0.1-0.4,0.1-0.6v-4.3
		c2.3-0.7,3.9-1.7,3.9-2.9L83.8,55.9L83.8,55.9z M78.5,67.8L78.3,68c-0.3,0.3-0.9,0.6-1.7,0.9v-3.1c0.8-0.3,1.4-0.6,2-0.9v2.7
		C78.6,67.6,78.6,67.7,78.5,67.8L78.5,67.8z M64,70.8c-0.1,0-0.2,0-0.3,0c-0.2,0-0.5,0-0.7,0v-3.3c0.2,0,0.4,0,0.5,0l0.1,0
		c0.7,0,1.3,0,2-0.1v3.2c-0.1,0-0.3,0-0.4,0C64.8,70.8,64.4,70.8,64,70.8L64,70.8z M61.1,70.8c-0.3,0-0.6,0-0.9,0l-0.1,0
		c-0.4,0-0.7,0-1.1,0v-3.2c0.7,0,1.3,0.1,2,0.1c0,0,0.1,0,0.1,0c0.2,0,0.4,0,0.5,0v3.3c-0.1,0-0.3,0-0.4,0
		C61.3,70.8,61.2,70.8,61.1,70.8L61.1,70.8z M49.4,69.3C49.4,69.3,49.3,69.3,49.4,69.3l-0.1-3.2c0.6,0.2,1.3,0.3,2,0.5v3.2
		c-0.6-0.1-1.1-0.3-1.6-0.4C49.5,69.4,49.5,69.4,49.4,69.3L49.4,69.3z M63.1,74.7c0.2,0,0.4,0,0.5,0V78c-0.9,0-1.8,0-2.6-0.1v-3.3
		c0.7,0,1.3,0.1,2,0.1C63,74.7,63.1,74.7,63.1,74.7L63.1,74.7z M65.6,74.7c0.7,0,1.3,0,2-0.1v3.2c-0.8,0-1.7,0.1-2.6,0.1v-3.3
		c0.2,0,0.4,0,0.5,0C65.5,74.7,65.5,74.7,65.6,74.7L65.6,74.7z M70.8,74.4v3.2c-0.6,0.1-1.3,0.1-2,0.2v-3.2
		C69.5,74.6,70.2,74.5,70.8,74.4L70.8,74.4z M72.1,74.3c0.7-0.1,1.3-0.2,2-0.3v3.2c-0.6,0.1-1.3,0.2-2,0.3V74.3z M75.4,73.8
		c0.7-0.1,1.3-0.3,2-0.4v3.1c-0.6,0.2-1.2,0.3-2,0.5V73.8z M53.2,73.8V77c-0.7-0.2-1.4-0.3-2-0.5v-3.1
		C51.9,73.5,52.5,73.7,53.2,73.8L53.2,73.8z M54.5,74c0.6,0.1,1.3,0.2,2,0.3v3.2c-0.7-0.1-1.3-0.2-2-0.3V74z M57.8,74.4
		c0.6,0.1,1.3,0.1,2,0.2v3.2c-0.7,0-1.3-0.1-2-0.2V74.4z M56.2,70.5c-0.1,0-0.1,0-0.2,0c0,0-0.1,0-0.1,0v-3.2c0.6,0.1,1.3,0.1,2,0.2
		v3.2C57.2,70.6,56.7,70.6,56.2,70.5L56.2,70.5z M54.5,67.1v3.2c-0.7-0.1-1.3-0.2-2-0.3v-3.2C53.2,67,53.9,67.1,54.5,67.1L54.5,67.1
		z M67.3,70.6c-0.1,0-0.3,0-0.4,0v-3.2c0.7,0,1.3-0.1,2-0.2v3.2c-0.4,0-0.8,0.1-1.2,0.1C67.5,70.6,67.4,70.6,67.3,70.6L67.3,70.6z
		 M70.1,70.4v-3.2c0.7-0.1,1.3-0.2,2-0.3v3.2C71.5,70.2,70.8,70.3,70.1,70.4L70.1,70.4z M73.4,66.6c0.7-0.1,1.3-0.3,2-0.4v3.1
		c-0.6,0.2-1.2,0.3-2,0.5V66.6z M64.5,63.7c-0.5,0-1,0-1.4-0.1c0,0-0.1,0-0.1,0v-3.3c0.7,0,1.3,0.1,2,0.1c0,0,0.1,0,0.1,0
		c0.2,0,0.4,0,0.5,0v3.3c-0.3,0-0.6,0-0.9,0C64.6,63.7,64.6,63.7,64.5,63.7L64.5,63.7z M49.3,54.3v-3.1c0.6,0.2,1.3,0.3,2,0.4v3.2
		c-0.1,0-0.2,0-0.2-0.1c-0.3-0.1-0.7-0.2-1-0.2C49.8,54.5,49.5,54.4,49.3,54.3L49.3,54.3z M61.1,52.6c0.2,0,0.4,0,0.5,0v3.3
		c-0.9,0-1.7,0-2.6-0.1v-3.2c0.7,0,1.3,0.1,2,0.1C61.1,52.6,61.1,52.6,61.1,52.6L61.1,52.6z M63.6,52.6c0.7,0,1.3,0,2-0.1v3.2
		c-0.1,0-0.2,0-0.3,0c0,0,0,0,0,0c-0.4,0-0.9,0-1.3,0c-0.1,0-0.1,0-0.2,0c-0.2,0-0.5,0-0.7,0v-3.3c0.2,0,0.4,0,0.5,0L63.6,52.6z
		 M78.5,52.9L78.5,52.9l-0.3,0.2c-0.3,0.3-0.9,0.5-1.5,0.8v-3.1c0.8-0.3,1.4-0.6,2-0.9v2.7C78.6,52.7,78.6,52.8,78.5,52.9L78.5,52.9
		z M70.1,55.4v-3.2c0.7-0.1,1.3-0.2,2-0.3v3.2C71.5,55.2,70.8,55.3,70.1,55.4L70.1,55.4z M73.4,54.8v-3.2c0.7-0.1,1.3-0.3,2-0.4v3.1
		C74.8,54.5,74.1,54.7,73.4,54.8L73.4,54.8z M68.8,52.3v3.2c-0.6,0.1-1.3,0.1-2,0.2v-3.2C67.6,52.4,68.2,52.4,68.8,52.3L68.8,52.3z
		 M55.8,55.5v-3.2c0.6,0.1,1.3,0.1,2,0.2v3.2C57.1,55.7,56.5,55.6,55.8,55.5L55.8,55.5z M54.5,52.2v3.2c-0.1,0-0.3,0-0.4,0
		c-0.1,0-0.2,0-0.2,0c-0.4-0.1-0.7-0.1-1.1-0.2c-0.1,0-0.1,0-0.2,0v-3.2C53.2,52,53.9,52.1,54.5,52.2L54.5,52.2z M61.5,63.5
		c-0.1,0-0.2,0-0.3,0c-0.4,0-0.8-0.1-1.2-0.1c-0.1,0-0.2,0-0.3,0c0,0,0,0-0.1,0v-3.2c0.6,0.1,1.3,0.1,2,0.2v3.2
		C61.6,63.5,61.6,63.5,61.5,63.5L61.5,63.5z M57.2,63c-0.3,0-0.5-0.1-0.7-0.1v-3.2c0.6,0.1,1.3,0.2,2,0.3v3.2
		C58,63.1,57.6,63.1,57.2,63C57.3,63,57.2,63,57.2,63L57.2,63z M55.2,59.5v3.2c-0.7-0.2-1.4-0.3-2-0.5V59
		C53.8,59.2,54.5,59.3,55.2,59.5L55.2,59.5z M51.9,58.6v3.1c-1-0.4-1.7-0.8-1.9-1.2l0-0.1c0,0,0,0,0-0.1v-2.7
		C50.5,58,51.1,58.3,51.9,58.6L51.9,58.6z M67.5,60.4c0.7,0,1.3,0,2-0.1v3.2c-0.9,0-1.7,0.1-2.6,0.1v-3.2c0.2,0,0.4,0,0.5,0
		L67.5,60.4z M75.9,62.9c-0.3,0-0.6,0.1-0.9,0.1c-0.2,0-0.3,0.1-0.5,0.1c-0.2,0-0.3,0-0.5,0.1V60c0.7-0.1,1.3-0.2,2-0.3L75.9,62.9
		C76,62.9,76,62.9,75.9,62.9L75.9,62.9z M71.5,63.5c-0.2,0-0.5,0-0.7,0.1v-3.2c0.7,0,1.3-0.1,2-0.2v3.2C72.4,63.4,72,63.4,71.5,63.5
		C71.6,63.5,71.6,63.5,71.5,63.5L71.5,63.5z M79,62.2c-0.3,0.1-0.7,0.2-1,0.3c-0.2,0-0.3,0.1-0.5,0.1c-0.1,0-0.1,0-0.2,0v-3.2
		c0.7-0.1,1.3-0.3,2-0.5v3.1C79.2,62.2,79.1,62.2,79,62.2L79,62.2z M82.5,55.9c-0.1,0.4-1.1,1-2.8,1.6c-2.3,0.7-5.9,1.4-10.5,1.6
		c-0.2,0-0.5,0-0.7,0c-0.2,0-0.4,0-0.6,0c-0.5,0-1.1,0-1.7,0c-0.6,0-1.1,0-1.6,0c-0.2,0-0.4,0-0.6,0c-0.2,0-0.5,0-0.7,0
		c-4.6-0.2-8.2-0.9-10.5-1.6C51,56.9,50,56.4,50,55.9c0,0,0,0,0,0c0,0,0.1,0,0.1,0c0.3,0.1,0.5,0.1,0.8,0.2c1.3,0.3,2.7,0.5,4.3,0.7
		c0,0,0,0,0,0h0c1,0.1,2.1,0.2,3.2,0.3c0,0,0,0,0,0c0,0,0,0,0,0c0.8,0,1.6,0.1,2.4,0.1c0.5,0,1,0,1.5,0c0.3,0,0.7,0,1,0
		c4.7-0.1,9.1-0.6,12.2-1.5c0.1,0,0.3-0.1,0.4-0.1c0.1,0,0.2,0,0.2-0.1c0.2-0.1,0.5-0.2,0.7-0.2c0,0,0.1,0,0.1,0
		c0.2-0.1,0.4-0.1,0.5-0.2c0,0,0.1,0,0.1-0.1c0.2-0.1,0.4-0.2,0.5-0.3c0.1,0,0.1-0.1,0.2-0.1c0.1,0,0.2-0.1,0.2-0.1
		c0,0,0.1-0.1,0.1-0.1C81.7,54.9,82.4,55.6,82.5,55.9L82.5,55.9z M62.3,45.4c10.7,0,16.2,1.7,16.3,2.7c-0.1,0.4-1.1,1-2.8,1.6
		c-2.3,0.7-5.9,1.4-10.5,1.6c-0.2,0-0.5,0-0.7,0c-0.2,0-0.4,0-0.6,0c-0.5,0-1.1,0-1.6,0c-0.6,0-1.1,0-1.7,0c-0.2,0-0.4,0-0.6,0
		c-0.2,0-0.5,0-0.7,0c-4.6-0.2-8.2-0.9-10.5-1.6c-1.8-0.5-2.8-1.1-2.8-1.6C46.2,47.1,51.6,45.4,62.3,45.4L62.3,45.4z M46.1,52.6
		v-2.7c0.5,0.3,1.2,0.6,2,0.9v3.1C46.7,53.4,46.1,53,46.1,52.6L46.1,52.6z M49.2,61.6C49.2,61.6,49.2,61.6,49.2,61.6
		c0.9,0.9,2.8,1.6,5.1,2.2c0.1,0,0.1,0,0.2,0c0.2,0,0.3,0.1,0.5,0.1c2.1,0.4,4.6,0.8,7.4,0.9c0,0,0,0,0,0c0,0,0,0,0,0
		c0.9,0.1,1.8,0.1,2.7,0.1c0.4,0,0.8,0,1.2,0c0.5,0,0.9,0,1.4,0c0.9,0,1.7-0.1,2.5-0.1c0,0,0,0,0,0c0,0,0,0,0,0
		c2.8-0.2,5.3-0.5,7.5-1c-0.5,0.2-1.1,0.5-1.9,0.8c-2.4,0.8-6.3,1.4-11.3,1.6c-0.1,0-0.3,0-0.4,0c-0.2,0-0.3,0-0.5,0
		c-0.4,0-0.8,0-1.2,0c-0.6,0-1.1,0-1.7,0c-0.2,0-0.4,0-0.6,0c-0.2,0-0.5,0-0.7,0c-4.6-0.2-8.2-0.9-10.5-1.6
		c-1.8-0.6-2.8-1.1-2.8-1.6C46.1,62.8,46.8,62.2,49.2,61.6L49.2,61.6z M46.1,67.6v-2.7c0.5,0.3,1.2,0.6,2,0.9v3.1l-0.4-0.1l0,0
		C46.6,68.3,46.1,67.9,46.1,67.6L46.1,67.6z M48,74.7V72c0.5,0.3,1.2,0.6,2,0.9v3.1C48.7,75.6,48,75.1,48,74.7L48,74.7z M78.6,76.1
		v-3.1c0.8-0.3,1.4-0.6,2-0.9v2.7C80.6,75.1,79.9,75.6,78.6,76.1L78.6,76.1z M80.6,70.2c-0.1,0.4-1.1,1-2.8,1.6
		c-2.3,0.7-5.9,1.4-10.5,1.6c-0.2,0-0.5,0-0.7,0c-0.2,0-0.4,0-0.6,0c-0.5,0-1.1,0-1.6,0c-0.6,0-1.1,0-1.6,0c-0.2,0-0.4,0-0.6,0
		c-0.2,0-0.5,0-0.7,0c-4.6-0.2-8.2-0.9-10.5-1.6c-1.7-0.5-2.7-1.1-2.8-1.5c0.2,0.1,0.4,0.1,0.6,0.2c0,0,0,0,0.1,0
		c0.2,0.1,0.4,0.1,0.5,0.2c0.1,0,0.1,0,0.2,0.1c0.1,0,0.2,0.1,0.3,0.1c2.4,0.6,5.4,1,8.7,1.2c0,0,0,0,0,0c1,0.1,2,0.1,3.1,0.1
		c0.3,0,0.6,0,0.8,0c0.4,0,0.7,0,1.1,0c1,0,1.9-0.1,2.8-0.1c0,0,0,0,0,0c0,0,0,0,0,0c1.1-0.1,2.2-0.2,3.2-0.3c0,0,0,0,0,0
		c0,0,0,0,0,0c1.2-0.1,2.3-0.3,3.3-0.5c0.2,0,0.4-0.1,0.6-0.1c0,0,0.1,0,0.1,0c1.9-0.4,3.6-0.9,4.7-1.5c0.1,0,0.1-0.1,0.2-0.1
		c0.1,0,0.1-0.1,0.2-0.1c0.1,0,0.1-0.1,0.2-0.1C80.2,69.7,80.5,70.1,80.6,70.2L80.6,70.2z M80.6,61.7v-3.1c0.8-0.3,1.4-0.6,2-0.9
		v2.7C82.5,60.8,81.8,61.3,80.6,61.7L80.6,61.7z M80.6,61.7"/>
</g>
</svg>
