<?xml version="1.0" encoding="utf-8"?>
<!-- Generator: Adobe Illustrator 21.0.2, SVG Export Plug-In . SVG Version: 6.00 Build 0)  -->
<svg version="1.1" id="Calque_1" xmlns="http://www.w3.org/2000/svg" xmlns:xlink="http://www.w3.org/1999/xlink" x="0px" y="0px"
	 viewBox="0 0 750 250" style="enable-background:new 0 0 750 250;" xml:space="preserve">
<style type="text/css">
	.st0{fill:#FFFFFF;}
</style>
<g>
	<g>
		<g>
			<path class="st0" d="M200.6,157.1c0,1.8-0.8,2.6-2.5,2.6h-6.5c-1.5,0-2.3-0.6-3-2L164.2,109c-1.1-2.3-2.8-5.3-3.6-7.7h-1.8
				c0.2,2.5,0.2,5.1,0.2,7.7v50.7h-6V98.2c0-1.8,0.8-2.6,2.5-2.6h6.3c1.5,0,2.3,0.7,3,2l23.9,47.5c1.3,2.6,2.9,5.8,4.3,8.6h2
				c-0.2-3.1-0.3-6.1-0.3-9.2v-49h6V157.1z"/>
			<path class="st0" d="M253.3,137.2c0,17.3-5.5,23.6-20.6,23.6s-20.7-6.3-20.7-23.6s5.6-23.7,20.7-23.7S253.3,120,253.3,137.2z
				 M218.2,137.2c0,14.2,3.6,18.6,14.5,18.6c10.9,0,14.5-4.4,14.5-18.6s-3.6-18.6-14.5-18.6C221.8,118.7,218.2,123,218.2,137.2z"/>
			<path class="st0" d="M271.1,138.1c-6.9-1.4-10-4.7-10-12.3c0-10.8,5.5-12.4,17.3-12.3c5.7,0.1,12.8,0.6,18.4,1.4l-0.6,4.3
				c-5.6-0.3-11.5-0.6-17.1-0.6c-8.9-0.1-12.3,0.1-12.3,7.2c0,5.4,2.4,6.6,6.9,7.5l13.8,2.6c7,1.4,10.4,4.6,10.4,12.1
				c0,11.1-6.2,12.7-18.7,12.7c-3.7,0-9.8-0.1-17.2-1.2l0.5-4.4c4.9,0.5,9.8,0.6,15.7,0.6c10.5-0.1,13.9-1.1,13.9-7.7
				c0-5.3-3-6.5-7.3-7.3L271.1,138.1z"/>
			<path class="st0" d="M342.9,159.7l-5.1-19.9c-1.3-4.2-3.5-5.8-7.4-5.8l-11.5-0.1v25.7h-11.5V95.6c7.3-0.7,12.4-0.8,23.3-0.8
				c15.8,0,22.3,4.2,22.3,18.8c0,9.6-3.2,15-12,16.2v0.5c3.2,0.7,7.2,3.3,8.5,9.5l5.8,20.1H342.9z M330.4,124.5
				c8.2-0.1,10.8-2.3,10.8-10.2c0-7.9-2.6-9.9-10.8-9.9h-11.5v20.2H330.4z"/>
			<path class="st0" d="M371.6,141.7c0.9,8.3,4.4,9.9,12.2,9.9c4.4,0,10.9-0.5,16.3-1.1l1,7.2c-4.8,2.3-13,3.1-18.8,3.1
				c-16.5,0-22.8-6.7-22.8-24c0-18,6.6-24,22-24c14.8,0,20.7,5.5,20.7,15.8c0,8.2-3.7,13-12.2,13H371.6z M387,133.8
				c3.6,0,4.1-2.9,4.1-5.3c0-4.8-2-6.7-9-6.7c-7.8,0-10.4,2.4-10.7,12H387z"/>
			<path class="st0" d="M447.4,159.7h-39.7v-8.6l26.7-28.2H408v-8.6h39v8.6l-26.7,28.2h27.1V159.7z"/>
			<path class="st0" d="M497.9,137c0,17.5-6,24-22.4,24c-16.4,0-22.6-6.5-22.6-24c0-17.5,6.1-24.1,22.6-24.1
				C491.9,112.9,497.9,119.5,497.9,137z M464.8,137c0,11.7,2.4,15,10.8,15c8.2,0,10.7-3.3,10.7-15c0-11.8-2.5-15-10.7-15
				C467.2,121.9,464.8,125.2,464.8,137z"/>
		</g>
		<path id="rocket-10-icon" class="st0" d="M557,161.7c11.5-5.9,18.1-18.5,17.4-27.4c-4.6,3.1-12.4,6.9-16.5,8.2
			C562.6,149.9,561.3,156,557,161.7z M530.6,115.1c1.3-4.1,5.1-11.9,8.2-16.5c-8.9-0.7-21.5,6-27.4,17.4
			C517.1,111.8,523.2,110.5,530.6,115.1z M553.3,137.6l-17.8-17.8c6.8-20.5,26.4-46.4,61.3-43.7
			C599.8,111.1,574.5,130.2,553.3,137.6z M565.7,114.2c1.9-1.9,1.9-4.9,0-6.8c-1.9-1.9-4.9-1.9-6.8,0c-1.9,1.9-1.9,4.9,0,6.8
			C560.8,116,563.8,116,565.7,114.2z M581.1,103.2c3.1-3.1,3.1-8.1,0-11.1c-3.1-3.1-8.1-3.1-11.1,0c-3.1,3.1-3.1,8.1,0,11.1
			C573,106.2,578,106.2,581.1,103.2z M519.5,144.2l-2.3-2.3l15.8-15.7l2.3,2.3L519.5,144.2z M535.5,151.9l-2.1-2.1l11.6-11.6
			l2.1,2.1L535.5,151.9z M519.1,156.8l-2.4-2.4l18.2-18.2l2.4,2.4L519.1,156.8z"/>
	</g>
</g>
</svg>
