<?xml version="1.0" encoding="utf-8"?>
<!-- Generator: Adobe Illustrator 21.0.2, SVG Export Plug-In . SVG Version: 6.00 Build 0)  -->
<svg version="1.1" id="Calque_1" xmlns="http://www.w3.org/2000/svg" xmlns:xlink="http://www.w3.org/1999/xlink" x="0px" y="0px"
	 viewBox="0 0 300 100" style="enable-background:new 0 0 300 100;" xml:space="preserve">
<style type="text/css">
	.st0{fill:#4F7ABD;}
</style>
<g>
	<path class="st0" d="M112.4,67.6c0,1.1-0.6,1.5-1.5,1.5H107c-0.9,0-1.4-0.4-1.8-1.2L90.5,38.7c-0.7-1.4-1.7-3.2-2.2-4.6h-1.1
		c0.1,1.5,0.1,3.1,0.1,4.6v30.6h-3.6V32c0-1.1,0.6-1.5,1.5-1.5h3.8c0.9,0,1.4,0.4,1.8,1.2l14.4,28.6c0.8,1.5,1.8,3.4,2.5,5.2h1.2
		c-0.1-1.9-0.2-3.6-0.2-5.5V30.5h3.6v37.1H112.4z"/>
	<path class="st0" d="M144.8,55.6c0,10.4-3.3,14.3-12.4,14.3c-9.2,0-12.5-3.8-12.5-14.3c0-10.4,3.3-14.3,12.5-14.3
		C141.4,41.3,144.8,45.2,144.8,55.6z M123.5,55.6c0,8.5,2.2,11.2,8.7,11.2c6.5,0,8.7-2.7,8.7-11.2s-2.2-11.2-8.7-11.2
		C125.7,44.4,123.5,47.1,123.5,55.6z"/>
	<path class="st0" d="M156,56.1c-4.1-0.9-6.1-2.9-6.1-7.4c0-6.5,3.3-7.4,10.4-7.4c3.4,0.1,7.7,0.3,11.1,0.9l-0.3,2.5
		c-3.3-0.2-7-0.3-10.3-0.3c-5.4-0.1-7.4,0.1-7.4,4.3c0,3.2,1.4,4,4.1,4.5l8.3,1.5c4.2,0.9,6.3,2.8,6.3,7.3c0,6.7-3.8,7.6-11.3,7.6
		c-2.2,0-6-0.1-10.4-0.8l0.3-2.7c3,0.3,6,0.4,9.5,0.3c6.3-0.1,8.4-0.7,8.4-4.6c0-3.2-1.8-3.9-4.4-4.4L156,56.1z"/>
	<path class="st0" d="M199.9,69.2l-3.1-12.1c-0.8-2.5-2.1-3.4-4.5-3.4l-7-0.1v15.5h-7V30.5c4.4-0.4,7.4-0.6,14-0.6
		c9.5,0,13.5,2.5,13.5,11.3c0,5.7-1.9,9.1-7.2,9.7v0.3c1.9,0.4,4.3,2,5.2,5.7l3.4,12.1h-7.4V69.2z M192.3,48c5-0.1,6.5-1.4,6.5-6.2
		s-1.5-6-6.5-6h-7V48H192.3z"/>
	<path class="st0" d="M217.7,58.2c0.6,5,2.7,6,7.3,6c2.7,0,6.5-0.3,9.8-0.7l0.7,4.4c-2.9,1.4-7.8,1.9-11.3,1.9
		c-9.9,0-13.7-4-13.7-14.5c0-10.8,4-14.5,13.3-14.5c9,0,12.5,3.3,12.5,9.5c0,5-2.2,7.8-7.3,7.8H217.7z M227,53.5
		c2.2,0,2.4-1.8,2.4-3.2c0-2.9-1.2-4-5.4-4c-4.8,0-6.3,1.4-6.4,7.2H227z"/>
	<path class="st0" d="M263.9,69.2h-24V64l16.1-17h-15.9v-5.2h23.5V47l-16,17H264v5.2H263.9z"/>
	<path class="st0" d="M295,55.5C295,66,291.4,70,281.5,70c-9.9,0-13.6-3.9-13.6-14.5S271.6,41,281.5,41
		C291.4,40.9,295,44.9,295,55.5z M275,55.5c0,7.1,1.4,9.1,6.5,9.1c5,0,6.4-2,6.4-9.1s-1.5-9.1-6.4-9.1C276.4,46.4,275,48.3,275,55.5
		z"/>
</g>
<g>
	<path class="st0" d="M52.3,43.4c1,1.3,1.6,3.1,1.6,5.5v13.4h-4.7V49.7c0-1.4-0.2-2.4-0.6-3.1c-0.4-0.7-1.2-1.1-2.2-1.1
		c-0.8,0-1.7,0.2-2.5,0.7c-0.9,0.5-1.9,1.1-2.9,1.9l0,0.9v13.4h-4.7V49.7c0-1.4-0.2-2.4-0.6-3.1c-0.4-0.7-1.2-1.1-2.2-1.1
		c-1.5,0-3.3,0.9-5.6,2.8v14.1h-4.7V42.1h3.1l0.8,2.4c1.2-0.9,2.4-1.7,3.8-2.2c1.3-0.6,2.6-0.9,3.7-0.9c2.7,0,4.6,1,5.5,3
		c1.2-0.9,2.4-1.7,3.7-2.2c1.3-0.6,2.5-0.8,3.7-0.8C49.6,41.5,51.2,42.1,52.3,43.4z"/>
	<path class="st0" d="M62.6,64.2l1-2.8l-7.2-18.5l4.5-1.5l5.2,14.2l4.9-13.4H76l-9,23.4c-0.6,1.5-1.6,2.8-3,3.8
		c-1.4,1.1-3,1.8-4.7,2.2l-1.6-3.8c1.4-0.6,2.5-1.1,3.3-1.6C61.7,65.7,62.3,65,62.6,64.2z"/>
</g>
<path class="st0" d="M78.5,79.3c-7.4,7.4-17.6,12-28.9,12C27.1,91.3,8.8,73,8.8,50.5S27.1,9.7,49.6,9.7c11.3,0,21.5,4.6,28.9,11.9
	h5.1C75.4,12,63.2,5.9,49.6,5.9C25,5.9,5,25.9,5,50.5s20,44.6,44.6,44.6c13.6,0,25.8-6.1,34-15.8H78.5z"/>
</svg>
