<?xml version="1.0" encoding="utf-8"?>
<!-- Generator: Adobe Illustrator 21.0.2, SVG Export Plug-In . SVG Version: 6.00 Build 0)  -->
<svg version="1.1" id="Calque_1" xmlns="http://www.w3.org/2000/svg" xmlns:xlink="http://www.w3.org/1999/xlink" x="0px" y="0px"
	 viewBox="0 0 120 120" style="enable-background:new 0 0 120 120;" xml:space="preserve">
<style type="text/css">
	.st0{display:none;fill:url(#SVGID_1_);}
	.st1{display:none;}
	.st2{display:inline;fill:url(#SVGID_2_);}
	.st3{display:inline;fill:url(#SVGID_3_);}
	.st4{display:inline;fill:url(#SVGID_4_);}
	.st5{display:inline;fill:url(#SVGID_5_);}
	.st6{display:inline;fill:url(#SVGID_6_);}
	.st7{display:inline;fill:url(#SVGID_7_);}
	.st8{display:inline;fill:url(#SVGID_8_);}
	.st9{display:inline;fill:url(#SVGID_9_);}
	.st10{display:inline;fill:url(#SVGID_10_);}
	.st11{display:inline;fill:url(#SVGID_11_);}
	.st12{display:inline;fill:url(#SVGID_12_);}
	.st13{display:inline;fill:url(#SVGID_13_);}
	.st14{display:inline;fill:url(#SVGID_14_);}
	.st15{display:inline;fill:url(#SVGID_15_);}
	.st16{display:inline;fill:url(#SVGID_16_);}
	.st17{display:inline;fill:url(#SVGID_17_);}
	.st18{display:inline;fill:url(#SVGID_18_);}
	.st19{display:inline;fill:url(#SVGID_19_);}
	.st20{display:inline;fill:url(#SVGID_20_);}
	.st21{display:inline;fill:url(#SVGID_21_);}
	.st22{display:inline;fill:url(#SVGID_22_);}
	.st23{display:inline;fill:url(#SVGID_23_);}
	.st24{display:inline;fill:url(#SVGID_24_);}
	.st25{display:inline;fill:url(#SVGID_25_);}
	.st26{display:inline;fill:url(#SVGID_26_);}
	.st27{display:inline;fill:url(#SVGID_27_);}
	.st28{display:inline;fill:url(#SVGID_28_);}
	.st29{display:inline;fill:url(#SVGID_29_);}
	.st30{display:inline;fill:url(#SVGID_30_);}
	.st31{display:inline;fill:url(#SVGID_31_);}
	.st32{fill:url(#SVGID_32_);}
	.st33{fill:url(#SVGID_33_);}
</style>
<linearGradient id="SVGID_1_" gradientUnits="userSpaceOnUse" x1="5.7214" y1="38.0375" x2="460.2799" y2="208.3331">
	<stop  offset="0" style="stop-color:#00B9C7"/>
	<stop  offset="0.9991" style="stop-color:#6D24FF"/>
</linearGradient>
<path class="st0" d="M98,86.9c-7.9,9.9-20.1,16.2-33.7,16.2c-23.8,0-43.1-19.3-43.1-43.1c0-23.8,19.3-43.1,43.1-43.1
	c13.6,0,25.8,6.3,33.7,16.2h3.5c-8.3-11.5-21.9-19-37.2-19C39,14.2,18.5,34.7,18.5,60c0,25.3,20.5,45.8,45.8,45.8
	c15.3,0,28.8-7.5,37.2-19H98z"/>
<g class="st1">
	<linearGradient id="SVGID_2_" gradientUnits="userSpaceOnUse" x1="-14.7683" y1="34.0099" x2="597.9155" y2="263.5457">
		<stop  offset="0" style="stop-color:#00B9C7"/>
		<stop  offset="0.9991" style="stop-color:#6D24FF"/>
	</linearGradient>
	<path class="st2" d="M87.4,49.2h-27c-0.5,0-0.9,0.4-0.9,0.9v34.2c0,0.5,0.4,0.9,0.9,0.9h27c0.5,0,0.9-0.4,0.9-0.9V50.1
		C88.3,49.6,87.9,49.2,87.4,49.2L87.4,49.2z M86.5,51v5.4H61.3v-1.8h10.8v-1.8H61.3V51H86.5z M61.3,83.4V58.2h25.2v25.2H61.3z
		 M61.3,83.4"/>
	<linearGradient id="SVGID_3_" gradientUnits="userSpaceOnUse" x1="-13.5285" y1="30.7005" x2="599.1553" y2="260.2362">
		<stop  offset="0" style="stop-color:#00B9C7"/>
		<stop  offset="0.9991" style="stop-color:#6D24FF"/>
	</linearGradient>
	<rect x="65.8" y="60" class="st3" width="2.7" height="1.8"/>
	<linearGradient id="SVGID_4_" gradientUnits="userSpaceOnUse" x1="-12.974" y1="29.2205" x2="599.7098" y2="258.7563">
		<stop  offset="0" style="stop-color:#00B9C7"/>
		<stop  offset="0.9991" style="stop-color:#6D24FF"/>
	</linearGradient>
	<rect x="70.3" y="60" class="st4" width="2.7" height="1.8"/>
	<linearGradient id="SVGID_5_" gradientUnits="userSpaceOnUse" x1="-12.4196" y1="27.7406" x2="600.2643" y2="257.2763">
		<stop  offset="0" style="stop-color:#00B9C7"/>
		<stop  offset="0.9991" style="stop-color:#6D24FF"/>
	</linearGradient>
	<rect x="74.8" y="60" class="st5" width="2.7" height="1.8"/>
	<linearGradient id="SVGID_6_" gradientUnits="userSpaceOnUse" x1="-11.8651" y1="26.2606" x2="600.8187" y2="255.7964">
		<stop  offset="0" style="stop-color:#00B9C7"/>
		<stop  offset="0.9991" style="stop-color:#6D24FF"/>
	</linearGradient>
	<rect x="79.3" y="60" class="st6" width="2.7" height="1.8"/>
	<linearGradient id="SVGID_7_" gradientUnits="userSpaceOnUse" x1="-15.1747" y1="35.0946" x2="597.5092" y2="264.6303">
		<stop  offset="0" style="stop-color:#00B9C7"/>
		<stop  offset="0.9991" style="stop-color:#6D24FF"/>
	</linearGradient>
	<rect x="64" y="64.5" class="st7" width="3.6" height="1.8"/>
	<linearGradient id="SVGID_8_" gradientUnits="userSpaceOnUse" x1="-14.5095" y1="33.319" x2="598.1744" y2="262.8547">
		<stop  offset="0" style="stop-color:#00B9C7"/>
		<stop  offset="0.9991" style="stop-color:#6D24FF"/>
	</linearGradient>
	<rect x="69.4" y="64.5" class="st8" width="3.6" height="1.8"/>
	<linearGradient id="SVGID_9_" gradientUnits="userSpaceOnUse" x1="-13.844" y1="31.5427" x2="598.8398" y2="261.0784">
		<stop  offset="0" style="stop-color:#00B9C7"/>
		<stop  offset="0.9991" style="stop-color:#6D24FF"/>
	</linearGradient>
	<rect x="74.8" y="64.5" class="st9" width="3.6" height="1.8"/>
	<linearGradient id="SVGID_10_" gradientUnits="userSpaceOnUse" x1="-13.1785" y1="29.7664" x2="599.5053" y2="259.3021">
		<stop  offset="0" style="stop-color:#00B9C7"/>
		<stop  offset="0.9991" style="stop-color:#6D24FF"/>
	</linearGradient>
	<rect x="80.2" y="64.5" class="st10" width="3.6" height="1.8"/>
	<linearGradient id="SVGID_11_" gradientUnits="userSpaceOnUse" x1="-16.3582" y1="38.2538" x2="596.3256" y2="267.7896">
		<stop  offset="0" style="stop-color:#00B9C7"/>
		<stop  offset="0.9991" style="stop-color:#6D24FF"/>
	</linearGradient>
	<rect x="64" y="68.1" class="st11" width="3.6" height="1.8"/>
	<linearGradient id="SVGID_12_" gradientUnits="userSpaceOnUse" x1="-15.693" y1="36.4783" x2="596.9908" y2="266.014">
		<stop  offset="0" style="stop-color:#00B9C7"/>
		<stop  offset="0.9991" style="stop-color:#6D24FF"/>
	</linearGradient>
	<rect x="69.4" y="68.1" class="st12" width="3.6" height="1.8"/>
	<linearGradient id="SVGID_13_" gradientUnits="userSpaceOnUse" x1="-15.0276" y1="34.702" x2="597.6562" y2="264.2377">
		<stop  offset="0" style="stop-color:#00B9C7"/>
		<stop  offset="0.9991" style="stop-color:#6D24FF"/>
	</linearGradient>
	<rect x="74.8" y="68.1" class="st13" width="3.6" height="1.8"/>
	<linearGradient id="SVGID_14_" gradientUnits="userSpaceOnUse" x1="-14.3621" y1="32.9257" x2="598.3217" y2="262.4614">
		<stop  offset="0" style="stop-color:#00B9C7"/>
		<stop  offset="0.9991" style="stop-color:#6D24FF"/>
	</linearGradient>
	<rect x="80.2" y="68.1" class="st14" width="3.6" height="1.8"/>
	<linearGradient id="SVGID_15_" gradientUnits="userSpaceOnUse" x1="-17.5426" y1="41.4151" x2="595.1412" y2="270.9508">
		<stop  offset="0" style="stop-color:#00B9C7"/>
		<stop  offset="0.9991" style="stop-color:#6D24FF"/>
	</linearGradient>
	<rect x="64" y="71.7" class="st15" width="3.6" height="1.8"/>
	<linearGradient id="SVGID_16_" gradientUnits="userSpaceOnUse" x1="-16.8774" y1="39.6395" x2="595.8065" y2="269.1753">
		<stop  offset="0" style="stop-color:#00B9C7"/>
		<stop  offset="0.9991" style="stop-color:#6D24FF"/>
	</linearGradient>
	<rect x="69.4" y="71.7" class="st16" width="3.6" height="1.8"/>
	<linearGradient id="SVGID_17_" gradientUnits="userSpaceOnUse" x1="-16.2119" y1="37.8632" x2="596.4719" y2="267.399">
		<stop  offset="0" style="stop-color:#00B9C7"/>
		<stop  offset="0.9991" style="stop-color:#6D24FF"/>
	</linearGradient>
	<rect x="74.8" y="71.7" class="st17" width="3.6" height="1.8"/>
	<linearGradient id="SVGID_18_" gradientUnits="userSpaceOnUse" x1="-15.5464" y1="36.0869" x2="597.1374" y2="265.6227">
		<stop  offset="0" style="stop-color:#00B9C7"/>
		<stop  offset="0.9991" style="stop-color:#6D24FF"/>
	</linearGradient>
	<rect x="80.2" y="71.7" class="st18" width="3.6" height="1.8"/>
	<linearGradient id="SVGID_19_" gradientUnits="userSpaceOnUse" x1="-18.7262" y1="44.5744" x2="593.9576" y2="274.1101">
		<stop  offset="0" style="stop-color:#00B9C7"/>
		<stop  offset="0.9991" style="stop-color:#6D24FF"/>
	</linearGradient>
	<rect x="64" y="75.3" class="st19" width="3.6" height="1.8"/>
	<linearGradient id="SVGID_20_" gradientUnits="userSpaceOnUse" x1="-18.061" y1="42.7988" x2="594.6229" y2="272.3346">
		<stop  offset="0" style="stop-color:#00B9C7"/>
		<stop  offset="0.9991" style="stop-color:#6D24FF"/>
	</linearGradient>
	<rect x="69.4" y="75.3" class="st20" width="3.6" height="1.8"/>
	<linearGradient id="SVGID_21_" gradientUnits="userSpaceOnUse" x1="-17.3955" y1="41.0225" x2="595.2883" y2="270.5583">
		<stop  offset="0" style="stop-color:#00B9C7"/>
		<stop  offset="0.9991" style="stop-color:#6D24FF"/>
	</linearGradient>
	<rect x="74.8" y="75.3" class="st21" width="3.6" height="1.8"/>
	<linearGradient id="SVGID_22_" gradientUnits="userSpaceOnUse" x1="-16.73" y1="39.2462" x2="595.9538" y2="268.782">
		<stop  offset="0" style="stop-color:#00B9C7"/>
		<stop  offset="0.9991" style="stop-color:#6D24FF"/>
	</linearGradient>
	<rect x="80.2" y="75.3" class="st22" width="3.6" height="1.8"/>
	<linearGradient id="SVGID_23_" gradientUnits="userSpaceOnUse" x1="-19.9098" y1="47.7336" x2="592.774" y2="277.2694">
		<stop  offset="0" style="stop-color:#00B9C7"/>
		<stop  offset="0.9991" style="stop-color:#6D24FF"/>
	</linearGradient>
	<rect x="64" y="78.9" class="st23" width="3.6" height="1.8"/>
	<linearGradient id="SVGID_24_" gradientUnits="userSpaceOnUse" x1="-19.2446" y1="45.9581" x2="593.4393" y2="275.4938">
		<stop  offset="0" style="stop-color:#00B9C7"/>
		<stop  offset="0.9991" style="stop-color:#6D24FF"/>
	</linearGradient>
	<rect x="69.4" y="78.9" class="st24" width="3.6" height="1.8"/>
	<linearGradient id="SVGID_25_" gradientUnits="userSpaceOnUse" x1="-18.5791" y1="44.1818" x2="594.1047" y2="273.7175">
		<stop  offset="0" style="stop-color:#00B9C7"/>
		<stop  offset="0.9991" style="stop-color:#6D24FF"/>
	</linearGradient>
	<rect x="74.8" y="78.9" class="st25" width="3.6" height="1.8"/>
	<linearGradient id="SVGID_26_" gradientUnits="userSpaceOnUse" x1="-17.9136" y1="42.4055" x2="594.7702" y2="271.9412">
		<stop  offset="0" style="stop-color:#00B9C7"/>
		<stop  offset="0.9991" style="stop-color:#6D24FF"/>
	</linearGradient>
	<rect x="80.2" y="78.9" class="st26" width="3.6" height="1.8"/>
	<linearGradient id="SVGID_27_" gradientUnits="userSpaceOnUse" x1="-8.6306" y1="17.627" x2="604.0532" y2="247.1627">
		<stop  offset="0" style="stop-color:#00B9C7"/>
		<stop  offset="0.9991" style="stop-color:#6D24FF"/>
	</linearGradient>
	<path class="st27" d="M36,43.8h9.9c0.5,0,0.9-0.4,0.9-0.9V33h30.6v12.6h1.8V32.1c0-0.5-0.4-0.9-0.9-0.9H45.9c-0.1,0-0.2,0-0.3,0.1
		h-0.1c-0.1,0.1-0.2,0.1-0.3,0.2L34.5,42.3c-0.1,0.1-0.1,0.2-0.2,0.3v0.1c0,0.1-0.1,0.2-0.1,0.3v9.9H36V43.8z M45,42h-7.8l7.8-7.8
		V42z M45,42"/>
	<linearGradient id="SVGID_28_" gradientUnits="userSpaceOnUse" x1="-20.0548" y1="48.1208" x2="592.629" y2="277.6565">
		<stop  offset="0" style="stop-color:#00B9C7"/>
		<stop  offset="0.9991" style="stop-color:#6D24FF"/>
	</linearGradient>
	<path class="st28" d="M56.8,69.9h-9.9V57.3c0-0.5-0.4-0.9-0.9-0.9H35.1c-0.5,0-0.9,0.4-0.9,0.9v27c0,0.5,0.4,0.9,0.9,0.9h21.6
		c0.5,0,0.9-0.4,0.9-0.9V70.8C57.7,70.3,57.3,69.9,56.8,69.9L56.8,69.9z M36,71.7h9v2.7h-9V71.7z M45,69.9h-9v-2.7h9V69.9z M45,65.4
		h-9v-2.7h9V65.4z M36,76.2h9v2.7h-9V76.2z M46.8,76.2h9v2.7h-9V76.2z M55.9,74.4h-9v-2.7h9V74.4z M36,58.2h9v2.7h-9V58.2z M36,80.7
		h9v2.7h-9V80.7z M55.9,83.4h-9v-2.7h9V83.4z M55.9,83.4"/>
	<linearGradient id="SVGID_29_" gradientUnits="userSpaceOnUse" x1="-4.9823" y1="7.8888" x2="607.7015" y2="237.4245">
		<stop  offset="0" style="stop-color:#00B9C7"/>
		<stop  offset="0.9991" style="stop-color:#6D24FF"/>
	</linearGradient>
	<rect x="68.5" y="35.7" class="st29" width="6.3" height="1.8"/>
	<linearGradient id="SVGID_30_" gradientUnits="userSpaceOnUse" x1="-7.0719" y1="13.4663" x2="605.6119" y2="243.0021">
		<stop  offset="0" style="stop-color:#00B9C7"/>
		<stop  offset="0.9991" style="stop-color:#6D24FF"/>
	</linearGradient>
	<rect x="58.6" y="40.2" class="st30" width="16.2" height="1.8"/>
	<linearGradient id="SVGID_31_" gradientUnits="userSpaceOnUse" x1="-10.162" y1="21.7147" x2="602.5218" y2="251.2504">
		<stop  offset="0" style="stop-color:#00B9C7"/>
		<stop  offset="0.9991" style="stop-color:#6D24FF"/>
	</linearGradient>
	<rect x="73.9" y="52.8" class="st31" width="2.7" height="1.8"/>
</g>
<linearGradient id="SVGID_32_" gradientUnits="userSpaceOnUse" x1="25.3348" y1="43.4424" x2="469.4855" y2="231.7093">
	<stop  offset="0" style="stop-color:#005EC7"/>
	<stop  offset="0.9991" style="stop-color:#6D66FF"/>
</linearGradient>
<path class="st32" d="M98.5,87.2c-8,10-20.3,16.4-34.1,16.4c-24.1,0-43.6-19.5-43.6-43.6c0-24.1,19.5-43.6,43.6-43.6
	c13.8,0,26.1,6.4,34.1,16.4h3.5c-8.4-11.6-22.1-19.2-37.6-19.2C38.8,13.6,18,34.4,18,60c0,25.6,20.8,46.4,46.4,46.4
	c15.5,0,29.2-7.6,37.6-19.2H98.5z"/>
<linearGradient id="SVGID_33_" gradientUnits="userSpaceOnUse" x1="25.2119" y1="43.7323" x2="469.3626" y2="231.9992">
	<stop  offset="0" style="stop-color:#005EC7"/>
	<stop  offset="0.9991" style="stop-color:#6D66FF"/>
</linearGradient>
<path class="st33" d="M82.7,56.3L77.1,51v-8.6h-6.5V45l-6.5-6L45.5,56.3c-0.3,0.2-0.3,0.7,0,0.9c0.2,0.3,0.7,0.3,0.9,0l2.2-2v21.6
	h31.2V55.2l2.2,2c0.1,0.1,0.3,0.2,0.4,0.2c0.2,0,0.3-0.1,0.5-0.2C83,56.9,83,56.5,82.7,56.3L82.7,56.3z M71.9,43.8h3.9v6.1l-3.9-3.6
	V43.8z M60.2,75.6V61.9c0-0.3,0.3-0.6,0.6-0.6h6.6c0.3,0,0.6,0.3,0.6,0.6v13.7H60.2z M78.4,75.6h-9.1V61.9c0-1.1-0.9-1.9-1.9-1.9
	h-6.6c-1.1,0-1.9,0.9-1.9,1.9v13.7h-9.1V54l14.3-13.3l9.3,8.6l3.7,3.4l1.3,1.2V75.6z M78.4,75.6"/>
</svg>
