<?xml version="1.0" encoding="utf-8"?>
<!-- Generator: Adobe Illustrator 21.0.2, SVG Export Plug-In . SVG Version: 6.00 Build 0)  -->
<svg version="1.1" id="Calque_1" xmlns="http://www.w3.org/2000/svg" xmlns:xlink="http://www.w3.org/1999/xlink" x="0px" y="0px"
	 viewBox="0 0 800 300" style="enable-background:new 0 0 800 300;" xml:space="preserve">
<style type="text/css">
	.st0{fill:url(#SVGID_1_);}
	.st1{fill:url(#SVGID_2_);}
	.st2{fill:url(#SVGID_3_);}
	.st3{fill:url(#SVGID_4_);}
	.st4{fill:url(#SVGID_5_);}
	.st5{fill:url(#SVGID_6_);}
	.st6{fill:url(#SVGID_7_);}
	.st7{fill:url(#SVGID_8_);}
	.st8{fill:url(#SVGID_9_);}
	.st9{fill:url(#SVGID_10_);}
	.st10{fill:url(#SVGID_11_);}
	.st11{fill:url(#SVGID_12_);}
	.st12{fill:url(#SVGID_13_);}
	.st13{fill:url(#SVGID_14_);}
	.st14{fill:url(#SVGID_15_);}
	.st15{fill:url(#SVGID_16_);}
	.st16{fill:url(#SVGID_17_);}
	.st17{fill:url(#SVGID_18_);}
	.st18{fill:url(#SVGID_19_);}
	.st19{fill:url(#SVGID_20_);}
	.st20{fill:url(#SVGID_21_);}
	.st21{fill:url(#SVGID_22_);}
	.st22{fill:url(#SVGID_23_);}
	.st23{fill:url(#SVGID_24_);}
	.st24{fill:url(#SVGID_25_);}
	.st25{fill:url(#SVGID_26_);}
	.st26{fill:url(#SVGID_27_);}
	.st27{fill:url(#SVGID_28_);}
</style>
<g>
	<linearGradient id="SVGID_1_" gradientUnits="userSpaceOnUse" x1="79.1994" y1="102.6635" x2="749.1993" y2="386.6635">
		<stop  offset="0" style="stop-color:#005EC7"/>
		<stop  offset="0.9991" style="stop-color:#6D66FF"/>
	</linearGradient>
	<path class="st0" d="M176.9,155.8l1.3-3.7c0.6,0.3,1.4,0.7,2.4,0.9c0.9,0.3,1.8,0.4,2.5,0.4c1,0,1.8-0.2,2.3-0.5
		c0.5-0.3,0.8-0.8,0.8-1.4c0-0.4-0.2-0.7-0.6-1c-0.4-0.3-1.1-0.8-2-1.3c-0.2-0.1-0.5-0.3-0.9-0.5c-1.4-0.8-2.4-1.5-3.2-2
		s-1.5-1.2-2-2c-0.6-0.8-0.9-1.7-0.9-2.8c0-1.1,0.3-2,0.9-2.9c0.6-0.8,1.4-1.5,2.5-2c1.1-0.5,2.4-0.7,3.9-0.7c1,0,2,0.1,3.1,0.4
		c1.1,0.3,2,0.7,2.8,1.2l-1.4,3.4c-1-0.4-1.8-0.7-2.4-0.8c-0.6-0.2-1.3-0.2-2-0.2c-0.7,0-1.3,0.2-1.8,0.5c-0.5,0.3-0.7,0.7-0.7,1.3
		c0,0.4,0.2,0.8,0.6,1.2c0.4,0.3,1,0.7,1.9,1.2c0.3,0.1,0.6,0.3,1,0.5c1.4,0.8,2.5,1.5,3.3,2.1s1.4,1.2,2,2c0.6,0.8,0.9,1.7,0.9,2.8
		c0,1.1-0.3,2.1-0.9,3s-1.5,1.6-2.7,2.1c-1.2,0.5-2.6,0.8-4.2,0.8c-0.9,0-2.1-0.2-3.3-0.5S177.6,156.2,176.9,155.8z"/>
	<linearGradient id="SVGID_2_" gradientUnits="userSpaceOnUse" x1="81.5093" y1="97.2141" x2="751.5093" y2="381.2141">
		<stop  offset="0" style="stop-color:#005EC7"/>
		<stop  offset="0.9991" style="stop-color:#6D66FF"/>
	</linearGradient>
	<path class="st1" d="M201.1,136.7v20.4h-4.7v-20.4H201.1z"/>
	<linearGradient id="SVGID_3_" gradientUnits="userSpaceOnUse" x1="84.3559" y1="90.4984" x2="754.3559" y2="374.4984">
		<stop  offset="0" style="stop-color:#005EC7"/>
		<stop  offset="0.9991" style="stop-color:#6D66FF"/>
	</linearGradient>
	<path class="st2" d="M222,146.3l-3.3,4.5l-1.9,0.3l-4.1-5.1v11.1h-4.7v-20.4h3.1l6.5,8.6l5.9-8.6h3v20.4H222V146.3z"/>
	<linearGradient id="SVGID_4_" gradientUnits="userSpaceOnUse" x1="88.5627" y1="80.5738" x2="758.5627" y2="364.5738">
		<stop  offset="0" style="stop-color:#005EC7"/>
		<stop  offset="0.9991" style="stop-color:#6D66FF"/>
	</linearGradient>
	<path class="st3" d="M233.5,136.7h4.7v12.5c0,1.4,0.4,2.5,1.1,3.3c0.7,0.7,1.7,1.1,3,1.1c1.2,0,2.2-0.4,3-1.1
		c0.7-0.8,1.1-1.8,1.1-3.3v-12.5h4.7v12.8c0,1.6-0.4,3-1.1,4.2c-0.7,1.2-1.8,2.1-3.1,2.8c-1.3,0.7-2.9,1-4.6,1c-1.7,0-3.3-0.3-4.6-1
		c-1.3-0.7-2.4-1.6-3.1-2.8c-0.7-1.2-1.1-2.6-1.1-4.2L233.5,136.7z"/>
	<linearGradient id="SVGID_5_" gradientUnits="userSpaceOnUse" x1="90.8579" y1="75.1591" x2="760.858" y2="359.1591">
		<stop  offset="0" style="stop-color:#005EC7"/>
		<stop  offset="0.9991" style="stop-color:#6D66FF"/>
	</linearGradient>
	<path class="st4" d="M262.4,153.4h8.9l0.5,3.7h-14.1v-20.4h4.7V153.4z"/>
	<linearGradient id="SVGID_6_" gradientUnits="userSpaceOnUse" x1="93.9854" y1="67.7808" x2="763.9855" y2="351.7808">
		<stop  offset="0" style="stop-color:#005EC7"/>
		<stop  offset="0.9991" style="stop-color:#6D66FF"/>
	</linearGradient>
	<path class="st5" d="M274.5,157.1l7.8-20.4h4.4l7.7,20.2l-4.6,0.5l-1.6-4.7h-7.4l-1.6,4.4H274.5z M282.1,149h4.7l-2.4-6.3
		L282.1,149z"/>
	<linearGradient id="SVGID_7_" gradientUnits="userSpaceOnUse" x1="98.2624" y1="57.6908" x2="768.2624" y2="341.6908">
		<stop  offset="0" style="stop-color:#005EC7"/>
		<stop  offset="0.9991" style="stop-color:#6D66FF"/>
	</linearGradient>
	<path class="st6" d="M297.2,136.7h17l0.6,3.7H308v16.7h-4.7v-16.7h-6.1V136.7z"/>
	<linearGradient id="SVGID_8_" gradientUnits="userSpaceOnUse" x1="100.8988" y1="51.4711" x2="770.8988" y2="335.4711">
		<stop  offset="0" style="stop-color:#005EC7"/>
		<stop  offset="0.9991" style="stop-color:#6D66FF"/>
	</linearGradient>
	<path class="st7" d="M333.7,153.4l0.6,3.7h-14.6v-20.4h12.9l0.6,3.7h-8.8v4.6h6.5l0.6,3.7h-7v4.8H333.7z"/>
	<linearGradient id="SVGID_9_" gradientUnits="userSpaceOnUse" x1="104.6509" y1="42.6193" x2="774.6509" y2="326.6193">
		<stop  offset="0" style="stop-color:#005EC7"/>
		<stop  offset="0.9991" style="stop-color:#6D66FF"/>
	</linearGradient>
	<path class="st8" d="M339.1,136.7h4.7v12.5c0,1.4,0.4,2.5,1.1,3.3c0.7,0.7,1.7,1.1,3,1.1c1.2,0,2.2-0.4,3-1.1s1.1-1.8,1.1-3.3
		v-12.5h4.7v12.8c0,1.6-0.4,3-1.1,4.2c-0.7,1.2-1.8,2.1-3.1,2.8c-1.3,0.7-2.9,1-4.6,1s-3.3-0.3-4.6-1c-1.3-0.7-2.4-1.6-3.1-2.8
		c-0.7-1.2-1.1-2.6-1.1-4.2L339.1,136.7z"/>
	<linearGradient id="SVGID_10_" gradientUnits="userSpaceOnUse" x1="107.3523" y1="36.2463" x2="777.3524" y2="320.2463">
		<stop  offset="0" style="stop-color:#005EC7"/>
		<stop  offset="0.9991" style="stop-color:#6D66FF"/>
	</linearGradient>
	<path class="st9" d="M363.4,157.1v-20.4h7.5c2.4,0,4.4,0.6,5.9,1.7c1.5,1.1,2.3,2.8,2.3,5c0,1.2-0.3,2.3-0.8,3.2
		c-0.6,0.9-1.3,1.6-2.3,2.2l4.8,8.4h-5.2l-3.8-7.1h-3.7v7.1H363.4z M370.8,140.5h-2.7v5.8h2.8c1,0,1.8-0.3,2.5-0.8
		c0.6-0.5,0.9-1.2,0.9-2.1c0-1-0.3-1.7-0.9-2.2C372.7,140.7,371.9,140.5,370.8,140.5z"/>
	<linearGradient id="SVGID_11_" gradientUnits="userSpaceOnUse" x1="112.1433" y1="24.9437" x2="782.1432" y2="308.9437">
		<stop  offset="0" style="stop-color:#005EC7"/>
		<stop  offset="0.9991" style="stop-color:#6D66FF"/>
	</linearGradient>
	<path class="st10" d="M402.9,157.1h-8.5v-20.4h8.5c2,0,3.8,0.4,5.2,1.3c1.4,0.9,2.5,2,3.2,3.6s1.1,3.3,1.1,5.2
		c0,2.1-0.4,3.9-1.2,5.5c-0.8,1.5-1.9,2.7-3.3,3.6C406.5,156.7,404.8,157.1,402.9,157.1z M402.9,140.5h-3.8v12.8h3.6
		c1.5,0,2.7-0.5,3.6-1.6s1.3-2.7,1.3-4.9c0-1.9-0.4-3.5-1.2-4.6S404.4,140.5,402.9,140.5z"/>
	<linearGradient id="SVGID_12_" gradientUnits="userSpaceOnUse" x1="115.8813" y1="16.1251" x2="785.8813" y2="300.1251">
		<stop  offset="0" style="stop-color:#005EC7"/>
		<stop  offset="0.9991" style="stop-color:#6D66FF"/>
	</linearGradient>
	<path class="st11" d="M432,153.4l0.6,3.7h-14.6v-20.4h12.9l0.6,3.7h-8.8v4.6h6.5l0.6,3.7h-7.1v4.8H432z"/>
	<linearGradient id="SVGID_13_" gradientUnits="userSpaceOnUse" x1="120.1913" y1="5.9571" x2="790.1913" y2="289.9571">
		<stop  offset="0" style="stop-color:#005EC7"/>
		<stop  offset="0.9991" style="stop-color:#6D66FF"/>
	</linearGradient>
	<path class="st12" d="M451.2,145.2h6.3l0.5,3.7h-6.9v8.2h-4.7v-20.4h12.4l0.5,3.7h-8.3V145.2z"/>
	<linearGradient id="SVGID_14_" gradientUnits="userSpaceOnUse" x1="122.7733" y1="-0.1342" x2="792.7733" y2="283.8658">
		<stop  offset="0" style="stop-color:#005EC7"/>
		<stop  offset="0.9991" style="stop-color:#6D66FF"/>
	</linearGradient>
	<path class="st13" d="M464.6,157.1v-20.4h7.5c2.4,0,4.4,0.6,5.9,1.7c1.5,1.1,2.3,2.8,2.3,5c0,1.2-0.3,2.3-0.8,3.2
		c-0.6,0.9-1.3,1.6-2.3,2.2l4.8,8.4h-5.2L473,150h-3.7v7.1H464.6z M472,140.5h-2.7v5.8h2.8c1,0,1.8-0.3,2.5-0.8
		c0.6-0.5,0.9-1.2,0.9-2.1c0-1-0.3-1.7-0.9-2.2C474,140.7,473.1,140.5,472,140.5z"/>
	<linearGradient id="SVGID_15_" gradientUnits="userSpaceOnUse" x1="126.002" y1="-7.7511" x2="796.002" y2="276.2489">
		<stop  offset="0" style="stop-color:#005EC7"/>
		<stop  offset="0.9991" style="stop-color:#6D66FF"/>
	</linearGradient>
	<path class="st14" d="M484.7,157.1l7.8-20.4h4.4l7.7,20.2l-4.6,0.5l-1.6-4.7H491l-1.6,4.4H484.7z M492.3,149h4.7l-2.4-6.3
		L492.3,149z"/>
	<linearGradient id="SVGID_16_" gradientUnits="userSpaceOnUse" x1="129.2074" y1="-15.3131" x2="799.2073" y2="268.6869">
		<stop  offset="0" style="stop-color:#005EC7"/>
		<stop  offset="0.9991" style="stop-color:#6D66FF"/>
	</linearGradient>
	<path class="st15" d="M514.2,136.7v20.4h-4.7v-20.4H514.2z"/>
	<linearGradient id="SVGID_17_" gradientUnits="userSpaceOnUse" x1="131.4574" y1="-20.6214" x2="801.4575" y2="263.3786">
		<stop  offset="0" style="stop-color:#005EC7"/>
		<stop  offset="0.9991" style="stop-color:#6D66FF"/>
	</linearGradient>
	<path class="st16" d="M520,155.8l1.3-3.7c0.6,0.3,1.4,0.7,2.4,0.9s1.8,0.4,2.5,0.4c1,0,1.8-0.2,2.3-0.5s0.8-0.8,0.8-1.4
		c0-0.4-0.2-0.7-0.6-1c-0.4-0.3-1.1-0.8-2-1.3c-0.2-0.1-0.5-0.3-0.9-0.5c-1.4-0.8-2.4-1.5-3.2-2s-1.5-1.2-2-2s-0.9-1.7-0.9-2.8
		c0-1.1,0.3-2,0.9-2.9c0.6-0.8,1.4-1.5,2.5-2c1.1-0.5,2.4-0.7,3.9-0.7c1,0,2,0.1,3.1,0.4c1.1,0.3,2,0.7,2.8,1.2l-1.4,3.4
		c-1-0.4-1.8-0.7-2.4-0.8c-0.6-0.2-1.3-0.2-2-0.2c-0.7,0-1.3,0.2-1.8,0.5c-0.5,0.3-0.7,0.7-0.7,1.3c0,0.4,0.2,0.8,0.6,1.2
		c0.4,0.3,1,0.7,1.9,1.2c0.3,0.1,0.6,0.3,1,0.5c1.4,0.8,2.5,1.5,3.3,2.1c0.8,0.5,1.4,1.2,2,2c0.6,0.8,0.9,1.7,0.9,2.8
		c0,1.1-0.3,2.1-0.9,3s-1.5,1.6-2.7,2.1c-1.2,0.5-2.6,0.8-4.2,0.8c-0.9,0-2.1-0.2-3.3-0.5S520.7,156.2,520,155.8z"/>
	<linearGradient id="SVGID_18_" gradientUnits="userSpaceOnUse" x1="135.5741" y1="-30.3333" x2="805.5741" y2="253.6667">
		<stop  offset="0" style="stop-color:#005EC7"/>
		<stop  offset="0.9991" style="stop-color:#6D66FF"/>
	</linearGradient>
	<path class="st17" d="M556.7,157.1h-8.5v-20.4h8.5c2,0,3.8,0.4,5.2,1.3c1.4,0.9,2.5,2,3.2,3.6s1.1,3.3,1.1,5.2
		c0,2.1-0.4,3.9-1.2,5.5c-0.8,1.5-1.9,2.7-3.3,3.6C560.3,156.7,558.6,157.1,556.7,157.1z M556.7,140.5h-3.8v12.8h3.6
		c1.5,0,2.7-0.5,3.6-1.6s1.3-2.7,1.3-4.9c0-1.9-0.4-3.5-1.2-4.6S558.2,140.5,556.7,140.5z"/>
	<linearGradient id="SVGID_19_" gradientUnits="userSpaceOnUse" x1="139.3122" y1="-39.1519" x2="809.3122" y2="244.8481">
		<stop  offset="0" style="stop-color:#005EC7"/>
		<stop  offset="0.9991" style="stop-color:#6D66FF"/>
	</linearGradient>
	<path class="st18" d="M585.9,153.4l0.6,3.7h-14.6v-20.4h12.9l0.6,3.7h-8.8v4.6h6.5l0.6,3.7h-7.1v4.8H585.9z"/>
	<linearGradient id="SVGID_20_" gradientUnits="userSpaceOnUse" x1="144.039" y1="-50.3033" x2="814.039" y2="233.6967">
		<stop  offset="0" style="stop-color:#005EC7"/>
		<stop  offset="0.9991" style="stop-color:#6D66FF"/>
	</linearGradient>
	<path class="st19" d="M605,144.9v12.2h-4.7v-20.4h4.5l8.6,12.3v-12.3h4.7v20.4h-4.5L605,144.9z"/>
	<linearGradient id="SVGID_21_" gradientUnits="userSpaceOnUse" x1="147.8159" y1="-59.2136" x2="817.8159" y2="224.7864">
		<stop  offset="0" style="stop-color:#005EC7"/>
		<stop  offset="0.9991" style="stop-color:#6D66FF"/>
	</linearGradient>
	<path class="st20" d="M634,136.2c2.1,0,4,0.5,5.5,1.4s2.7,2.2,3.6,3.8c0.8,1.6,1.2,3.4,1.2,5.3c0,2.1-0.4,3.9-1.3,5.6
		c-0.9,1.6-2.1,2.9-3.6,3.8c-1.6,0.9-3.3,1.4-5.3,1.4c-2.1,0-3.9-0.5-5.5-1.4c-1.6-0.9-2.7-2.2-3.6-3.8c-0.8-1.6-1.2-3.4-1.2-5.3
		c0-2.1,0.4-3.9,1.3-5.5s2.1-2.9,3.6-3.8C630.2,136.7,632,136.3,634,136.2z M628.6,147c0,2,0.5,3.6,1.5,4.8c1,1.2,2.3,1.8,3.9,1.8
		c1,0,1.9-0.3,2.8-0.8c0.8-0.5,1.5-1.3,2-2.3c0.5-1,0.7-2.3,0.7-3.8c0-1.3-0.2-2.4-0.7-3.4c-0.4-1-1.1-1.8-1.9-2.4
		c-0.8-0.6-1.8-0.9-2.8-0.9c-1,0-1.9,0.3-2.7,0.8c-0.8,0.6-1.5,1.4-2,2.4C628.8,144.4,628.6,145.6,628.6,147z"/>
	<linearGradient id="SVGID_22_" gradientUnits="userSpaceOnUse" x1="151.6445" y1="-68.2458" x2="821.6445" y2="215.7542">
		<stop  offset="0" style="stop-color:#005EC7"/>
		<stop  offset="0.9991" style="stop-color:#6D66FF"/>
	</linearGradient>
	<path class="st21" d="M647.7,136.7h17l0.6,3.7h-6.8v16.7h-4.7v-16.7h-6.1V136.7z"/>
	<linearGradient id="SVGID_23_" gradientUnits="userSpaceOnUse" x1="153.9017" y1="-73.5709" x2="823.9017" y2="210.4292">
		<stop  offset="0" style="stop-color:#005EC7"/>
		<stop  offset="0.9991" style="stop-color:#6D66FF"/>
	</linearGradient>
	<path class="st22" d="M667.9,157.1l7.8-20.4h4.4l7.7,20.2l-4.6,0.5l-1.6-4.7h-7.4l-1.6,4.4H667.9z M675.5,149h4.7l-2.4-6.3
		L675.5,149z"/>
	<linearGradient id="SVGID_24_" gradientUnits="userSpaceOnUse" x1="157.1069" y1="-81.1325" x2="827.1069" y2="202.8675">
		<stop  offset="0" style="stop-color:#005EC7"/>
		<stop  offset="0.9991" style="stop-color:#6D66FF"/>
	</linearGradient>
	<path class="st23" d="M697.4,136.7v20.4h-4.7v-20.4H697.4z"/>
	<linearGradient id="SVGID_25_" gradientUnits="userSpaceOnUse" x1="159.2997" y1="-86.3057" x2="829.2997" y2="197.6943">
		<stop  offset="0" style="stop-color:#005EC7"/>
		<stop  offset="0.9991" style="stop-color:#6D66FF"/>
	</linearGradient>
	<path class="st24" d="M704.4,157.1v-20.4h7.5c2.4,0,4.4,0.6,5.9,1.7c1.5,1.1,2.3,2.8,2.3,5c0,1.2-0.3,2.3-0.8,3.2
		c-0.6,0.9-1.3,1.6-2.3,2.2l4.8,8.4h-5.2l-3.8-7.1h-3.7v7.1H704.4z M711.8,140.5h-2.7v5.8h2.8c1,0,1.8-0.3,2.5-0.8
		c0.6-0.5,0.9-1.2,0.9-2.1c0-1-0.3-1.7-0.9-2.2C713.8,140.7,712.9,140.5,711.8,140.5z"/>
	<linearGradient id="SVGID_26_" gradientUnits="userSpaceOnUse" x1="162.9077" y1="-94.8174" x2="832.9077" y2="189.1826">
		<stop  offset="0" style="stop-color:#005EC7"/>
		<stop  offset="0.9991" style="stop-color:#6D66FF"/>
	</linearGradient>
	<path class="st25" d="M740.8,153.4l0.6,3.7h-14.6v-20.4h12.9l0.6,3.7h-8.8v4.6h6.5l0.6,3.7h-7.1v4.8H740.8z"/>
</g>
<linearGradient id="SVGID_27_" gradientUnits="userSpaceOnUse" x1="69.7216" y1="125.023" x2="739.7216" y2="409.023">
	<stop  offset="0" style="stop-color:#005EC7"/>
	<stop  offset="0.9991" style="stop-color:#6D66FF"/>
</linearGradient>
<path class="st26" d="M180.1,191c-12.1,15.1-30.6,24.8-51.5,24.8c-36.3,0-65.8-29.5-65.8-65.8c0-36.3,29.5-65.8,65.8-65.8
	c20.8,0,39.4,9.7,51.5,24.8h5.3c-12.7-17.6-33.4-29-56.7-29c-38.7,0-70,31.3-70,70c0,38.7,31.3,70,70,70c23.3,0,44-11.4,56.7-29
	H180.1z"/>
<linearGradient id="SVGID_28_" gradientUnits="userSpaceOnUse" x1="69.5363" y1="125.4602" x2="739.5363" y2="409.4602">
	<stop  offset="0" style="stop-color:#005EC7"/>
	<stop  offset="0.9991" style="stop-color:#6D66FF"/>
</linearGradient>
<path class="st27" d="M156.3,144.4l-8.5-7.9v-12.9H138v3.8l-9.8-9.1l-28.1,26.1c-0.4,0.4-0.4,1,0,1.4c0.4,0.4,1,0.4,1.4,0l3.3-3
	v32.7h47v-32.7l3.3,3c0.2,0.2,0.4,0.3,0.7,0.3c0.3,0,0.5-0.1,0.7-0.3C156.7,145.4,156.7,144.7,156.3,144.4L156.3,144.4z M140,125.5
	h5.9v9.2l-5.9-5.5V125.5z M122.3,173.5v-20.6c0-0.5,0.4-0.9,0.9-0.9h9.9c0.5,0,0.9,0.4,0.9,0.9v20.6H122.3z M149.8,173.5h-13.7
	v-20.6c0-1.6-1.3-2.9-2.9-2.9h-9.9c-1.6,0-2.9,1.3-2.9,2.9v20.6h-13.7V141l21.5-20l14,13l5.6,5.2l2,1.8V173.5z M149.8,173.5"/>
</svg>
