<?xml version="1.0" encoding="utf-8"?>
<!-- Generator: Adobe Illustrator 21.0.2, SVG Export Plug-In . SVG Version: 6.00 Build 0)  -->
<svg version="1.1" xmlns="http://www.w3.org/2000/svg" xmlns:xlink="http://www.w3.org/1999/xlink" x="0px" y="0px"
	 viewBox="0 0 800 300" style="enable-background:new 0 0 800 300;" xml:space="preserve">
<style type="text/css">
	.st0{display:none;}
	.st1{display:inline;}
	.st2{fill:url(#SVGID_1_);}
	.st3{fill:url(#SVGID_2_);}
	.st4{fill:url(#SVGID_3_);}
	.st5{fill:url(#SVGID_4_);}
	.st6{fill:url(#SVGID_5_);}
	.st7{fill:url(#SVGID_6_);}
	.st8{fill:url(#SVGID_7_);}
	.st9{fill:url(#SVGID_8_);}
	.st10{fill:url(#SVGID_9_);}
	.st11{fill:url(#SVGID_10_);}
	.st12{fill:url(#SVGID_11_);}
	.st13{fill:url(#SVGID_12_);}
	.st14{fill:url(#SVGID_13_);}
	.st15{fill:url(#SVGID_14_);}
	.st16{fill:url(#SVGID_15_);}
	.st17{fill:url(#SVGID_16_);}
	.st18{fill:url(#SVGID_17_);}
	.st19{fill:url(#SVGID_18_);}
	.st20{fill:url(#SVGID_19_);}
	.st21{fill:url(#SVGID_20_);}
	.st22{fill:url(#SVGID_21_);}
	.st23{fill:url(#SVGID_22_);}
	.st24{fill:url(#SVGID_23_);}
	.st25{fill:url(#SVGID_24_);}
	.st26{fill:url(#SVGID_25_);}
	.st27{fill:url(#SVGID_26_);}
	.st28{display:inline;fill:url(#SVGID_27_);}
	.st29{display:inline;fill:url(#SVGID_28_);}
	.st30{fill:url(#SVGID_29_);}
	.st31{fill:url(#SVGID_30_);}
	.st32{fill:url(#SVGID_31_);}
	.st33{fill:url(#SVGID_32_);}
	.st34{fill:url(#SVGID_33_);}
	.st35{fill:url(#SVGID_34_);}
	.st36{fill:url(#SVGID_35_);}
	.st37{fill:url(#SVGID_36_);}
	.st38{fill:url(#SVGID_37_);}
	.st39{fill:url(#SVGID_38_);}
	.st40{fill:url(#SVGID_39_);}
	.st41{fill:url(#SVGID_40_);}
	.st42{fill:url(#SVGID_41_);}
	.st43{fill:url(#SVGID_42_);}
	.st44{fill:url(#SVGID_43_);}
	.st45{fill:url(#SVGID_44_);}
	.st46{fill:url(#SVGID_45_);}
	.st47{fill:url(#SVGID_46_);}
	.st48{fill:url(#SVGID_47_);}
	.st49{fill:url(#SVGID_48_);}
	.st50{fill:url(#SVGID_49_);}
	.st51{fill:url(#SVGID_50_);}
	.st52{fill:url(#SVGID_51_);}
	.st53{fill:url(#SVGID_52_);}
	.st54{fill:url(#SVGID_53_);}
	.st55{fill:url(#SVGID_54_);}
	.st56{fill:url(#SVGID_55_);}
	.st57{fill:url(#SVGID_56_);}
	.st58{fill:url(#SVGID_57_);}
	.st59{fill:url(#SVGID_58_);}
	.st60{fill:url(#SVGID_59_);}
	.st61{fill:url(#SVGID_60_);}
	.st62{fill:url(#SVGID_61_);}
	.st63{fill:url(#SVGID_62_);}
	.st64{fill:url(#SVGID_63_);}
	.st65{fill:url(#SVGID_64_);}
	.st66{fill:url(#SVGID_65_);}
	.st67{fill:url(#SVGID_66_);}
	.st68{fill:url(#SVGID_67_);}
	.st69{fill:url(#SVGID_68_);}
	.st70{fill:url(#SVGID_69_);}
	.st71{fill:url(#SVGID_70_);}
	.st72{fill:url(#SVGID_71_);}
	.st73{fill:url(#SVGID_72_);}
	.st74{fill:url(#SVGID_73_);}
	.st75{fill:url(#SVGID_74_);}
	.st76{fill:url(#SVGID_75_);}
	.st77{fill:url(#SVGID_76_);}
	.st78{fill:url(#SVGID_77_);}
	.st79{fill:url(#SVGID_78_);}
	.st80{fill:url(#SVGID_79_);}
	.st81{fill:url(#SVGID_80_);}
	.st82{fill:url(#SVGID_81_);}
	.st83{fill:url(#SVGID_82_);}
	.st84{fill:url(#SVGID_83_);}
	.st85{fill:url(#SVGID_84_);}
	.st86{fill:url(#SVGID_85_);}
	.st87{fill:url(#SVGID_86_);}
	.st88{fill:url(#SVGID_87_);}
	.st89{fill:url(#SVGID_88_);}
	.st90{fill:url(#SVGID_89_);}
	.st91{fill:url(#SVGID_90_);}
	.st92{fill:url(#SVGID_91_);}
	.st93{fill:url(#SVGID_92_);}
	.st94{fill:url(#SVGID_93_);}
	.st95{fill:url(#SVGID_94_);}
	.st96{fill:url(#SVGID_95_);}
	.st97{fill:url(#SVGID_96_);}
	.st98{fill:url(#SVGID_97_);}
	.st99{fill:url(#SVGID_98_);}
	.st100{fill:url(#SVGID_99_);}
	.st101{fill:url(#SVGID_100_);}
	.st102{fill:url(#SVGID_101_);}
</style>
<g id="Calque_1" class="st0">
	<g class="st1">
		<linearGradient id="SVGID_1_" gradientUnits="userSpaceOnUse" x1="89.1994" y1="102.6635" x2="759.1993" y2="386.6635">
			<stop  offset="0" style="stop-color:#005EC7"/>
			<stop  offset="0.9991" style="stop-color:#6D66FF"/>
		</linearGradient>
		<path class="st2" d="M186.9,155.8l1.3-3.7c0.6,0.3,1.4,0.7,2.4,0.9c0.9,0.3,1.8,0.4,2.5,0.4c1,0,1.8-0.2,2.3-0.5
			c0.5-0.3,0.8-0.8,0.8-1.4c0-0.4-0.2-0.7-0.6-1c-0.4-0.3-1.1-0.8-2-1.3c-0.2-0.1-0.5-0.3-0.9-0.5c-1.4-0.8-2.4-1.5-3.2-2
			s-1.5-1.2-2-2c-0.6-0.8-0.9-1.7-0.9-2.8c0-1.1,0.3-2,0.9-2.9c0.6-0.8,1.4-1.5,2.5-2c1.1-0.5,2.4-0.7,3.9-0.7c1,0,2,0.1,3.1,0.4
			c1.1,0.3,2,0.7,2.8,1.2l-1.4,3.4c-1-0.4-1.8-0.7-2.4-0.8c-0.6-0.2-1.3-0.2-2-0.2c-0.7,0-1.3,0.2-1.8,0.5c-0.5,0.3-0.7,0.7-0.7,1.3
			c0,0.4,0.2,0.8,0.6,1.2c0.4,0.3,1,0.7,1.9,1.2c0.3,0.1,0.6,0.3,1,0.5c1.4,0.8,2.5,1.5,3.3,2.1s1.4,1.2,2,2
			c0.6,0.8,0.9,1.7,0.9,2.8c0,1.1-0.3,2.1-0.9,3s-1.5,1.6-2.7,2.1c-1.2,0.5-2.6,0.8-4.2,0.8c-0.9,0-2.1-0.2-3.3-0.5
			S187.6,156.2,186.9,155.8z"/>
		<linearGradient id="SVGID_2_" gradientUnits="userSpaceOnUse" x1="91.5093" y1="97.2141" x2="761.5093" y2="381.2141">
			<stop  offset="0" style="stop-color:#005EC7"/>
			<stop  offset="0.9991" style="stop-color:#6D66FF"/>
		</linearGradient>
		<path class="st3" d="M211.1,136.7v20.4h-4.7v-20.4H211.1z"/>
		<linearGradient id="SVGID_3_" gradientUnits="userSpaceOnUse" x1="94.3559" y1="90.4984" x2="764.3559" y2="374.4984">
			<stop  offset="0" style="stop-color:#005EC7"/>
			<stop  offset="0.9991" style="stop-color:#6D66FF"/>
		</linearGradient>
		<path class="st4" d="M232,146.3l-3.3,4.5l-1.9,0.3l-4.1-5.1v11.1h-4.7v-20.4h3.1l6.5,8.6l5.9-8.6h3v20.4H232V146.3z"/>
		<linearGradient id="SVGID_4_" gradientUnits="userSpaceOnUse" x1="98.5627" y1="80.5738" x2="768.5627" y2="364.5738">
			<stop  offset="0" style="stop-color:#005EC7"/>
			<stop  offset="0.9991" style="stop-color:#6D66FF"/>
		</linearGradient>
		<path class="st5" d="M243.5,136.7h4.7v12.5c0,1.4,0.4,2.5,1.1,3.3c0.7,0.7,1.7,1.1,3,1.1c1.2,0,2.2-0.4,3-1.1
			c0.7-0.8,1.1-1.8,1.1-3.3v-12.5h4.7v12.8c0,1.6-0.4,3-1.1,4.2c-0.7,1.2-1.8,2.1-3.1,2.8c-1.3,0.7-2.9,1-4.6,1
			c-1.7,0-3.3-0.3-4.6-1c-1.3-0.7-2.4-1.6-3.1-2.8c-0.7-1.2-1.1-2.6-1.1-4.2L243.5,136.7z"/>
		<linearGradient id="SVGID_5_" gradientUnits="userSpaceOnUse" x1="100.8579" y1="75.1591" x2="770.858" y2="359.1591">
			<stop  offset="0" style="stop-color:#005EC7"/>
			<stop  offset="0.9991" style="stop-color:#6D66FF"/>
		</linearGradient>
		<path class="st6" d="M272.4,153.4h8.9l0.5,3.7h-14.1v-20.4h4.7V153.4z"/>
		<linearGradient id="SVGID_6_" gradientUnits="userSpaceOnUse" x1="103.9854" y1="67.7808" x2="773.9855" y2="351.7808">
			<stop  offset="0" style="stop-color:#005EC7"/>
			<stop  offset="0.9991" style="stop-color:#6D66FF"/>
		</linearGradient>
		<path class="st7" d="M284.5,157.1l7.8-20.4h4.4l7.7,20.2l-4.6,0.5l-1.6-4.7h-7.4l-1.6,4.4H284.5z M292.1,149h4.7l-2.4-6.3
			L292.1,149z"/>
		<linearGradient id="SVGID_7_" gradientUnits="userSpaceOnUse" x1="108.2624" y1="57.6908" x2="778.2624" y2="341.6908">
			<stop  offset="0" style="stop-color:#005EC7"/>
			<stop  offset="0.9991" style="stop-color:#6D66FF"/>
		</linearGradient>
		<path class="st8" d="M307.2,136.7h17l0.6,3.7H318v16.7h-4.7v-16.7h-6.1V136.7z"/>
		<linearGradient id="SVGID_8_" gradientUnits="userSpaceOnUse" x1="110.8988" y1="51.4711" x2="780.8988" y2="335.4711">
			<stop  offset="0" style="stop-color:#005EC7"/>
			<stop  offset="0.9991" style="stop-color:#6D66FF"/>
		</linearGradient>
		<path class="st9" d="M343.7,153.4l0.6,3.7h-14.6v-20.4h12.9l0.6,3.7h-8.8v4.6h6.5l0.6,3.7h-7v4.8H343.7z"/>
		<linearGradient id="SVGID_9_" gradientUnits="userSpaceOnUse" x1="114.6509" y1="42.6193" x2="784.6509" y2="326.6193">
			<stop  offset="0" style="stop-color:#005EC7"/>
			<stop  offset="0.9991" style="stop-color:#6D66FF"/>
		</linearGradient>
		<path class="st10" d="M349.1,136.7h4.7v12.5c0,1.4,0.4,2.5,1.1,3.3c0.7,0.7,1.7,1.1,3,1.1c1.2,0,2.2-0.4,3-1.1s1.1-1.8,1.1-3.3
			v-12.5h4.7v12.8c0,1.6-0.4,3-1.1,4.2c-0.7,1.2-1.8,2.1-3.1,2.8c-1.3,0.7-2.9,1-4.6,1s-3.3-0.3-4.6-1c-1.3-0.7-2.4-1.6-3.1-2.8
			c-0.7-1.2-1.1-2.6-1.1-4.2L349.1,136.7z"/>
		<linearGradient id="SVGID_10_" gradientUnits="userSpaceOnUse" x1="117.3523" y1="36.2463" x2="787.3524" y2="320.2463">
			<stop  offset="0" style="stop-color:#005EC7"/>
			<stop  offset="0.9991" style="stop-color:#6D66FF"/>
		</linearGradient>
		<path class="st11" d="M373.4,157.1v-20.4h7.5c2.4,0,4.4,0.6,5.9,1.7c1.5,1.1,2.3,2.8,2.3,5c0,1.2-0.3,2.3-0.8,3.2
			c-0.6,0.9-1.3,1.6-2.3,2.2l4.8,8.4h-5.2l-3.8-7.1h-3.7v7.1H373.4z M380.8,140.5h-2.7v5.8h2.8c1,0,1.8-0.3,2.5-0.8
			c0.6-0.5,0.9-1.2,0.9-2.1c0-1-0.3-1.7-0.9-2.2C382.7,140.7,381.9,140.5,380.8,140.5z"/>
		<linearGradient id="SVGID_11_" gradientUnits="userSpaceOnUse" x1="122.1433" y1="24.9437" x2="792.1432" y2="308.9437">
			<stop  offset="0" style="stop-color:#005EC7"/>
			<stop  offset="0.9991" style="stop-color:#6D66FF"/>
		</linearGradient>
		<path class="st12" d="M412.9,157.1h-8.5v-20.4h8.5c2,0,3.8,0.4,5.2,1.3c1.4,0.9,2.5,2,3.2,3.6s1.1,3.3,1.1,5.2
			c0,2.1-0.4,3.9-1.2,5.5c-0.8,1.5-1.9,2.7-3.3,3.6C416.5,156.7,414.8,157.1,412.9,157.1z M412.9,140.5h-3.8v12.8h3.6
			c1.5,0,2.7-0.5,3.6-1.6s1.3-2.7,1.3-4.9c0-1.9-0.4-3.5-1.2-4.6S414.4,140.5,412.9,140.5z"/>
		<linearGradient id="SVGID_12_" gradientUnits="userSpaceOnUse" x1="125.8813" y1="16.1251" x2="795.8813" y2="300.1251">
			<stop  offset="0" style="stop-color:#005EC7"/>
			<stop  offset="0.9991" style="stop-color:#6D66FF"/>
		</linearGradient>
		<path class="st13" d="M442,153.4l0.6,3.7h-14.6v-20.4h12.9l0.6,3.7h-8.8v4.6h6.5l0.6,3.7h-7.1v4.8H442z"/>
		<linearGradient id="SVGID_13_" gradientUnits="userSpaceOnUse" x1="130.1913" y1="5.9571" x2="800.1913" y2="289.9571">
			<stop  offset="0" style="stop-color:#005EC7"/>
			<stop  offset="0.9991" style="stop-color:#6D66FF"/>
		</linearGradient>
		<path class="st14" d="M461.2,145.2h6.3l0.5,3.7h-6.9v8.2h-4.7v-20.4h12.4l0.5,3.7h-8.3V145.2z"/>
		<linearGradient id="SVGID_14_" gradientUnits="userSpaceOnUse" x1="132.7733" y1="-0.1342" x2="802.7733" y2="283.8658">
			<stop  offset="0" style="stop-color:#005EC7"/>
			<stop  offset="0.9991" style="stop-color:#6D66FF"/>
		</linearGradient>
		<path class="st15" d="M474.6,157.1v-20.4h7.5c2.4,0,4.4,0.6,5.9,1.7c1.5,1.1,2.3,2.8,2.3,5c0,1.2-0.3,2.3-0.8,3.2
			c-0.6,0.9-1.3,1.6-2.3,2.2l4.8,8.4h-5.2L483,150h-3.7v7.1H474.6z M482,140.5h-2.7v5.8h2.8c1,0,1.8-0.3,2.5-0.8
			c0.6-0.5,0.9-1.2,0.9-2.1c0-1-0.3-1.7-0.9-2.2C484,140.7,483.1,140.5,482,140.5z"/>
		<linearGradient id="SVGID_15_" gradientUnits="userSpaceOnUse" x1="136.002" y1="-7.7511" x2="806.002" y2="276.2489">
			<stop  offset="0" style="stop-color:#005EC7"/>
			<stop  offset="0.9991" style="stop-color:#6D66FF"/>
		</linearGradient>
		<path class="st16" d="M494.7,157.1l7.8-20.4h4.4l7.7,20.2l-4.6,0.5l-1.6-4.7H501l-1.6,4.4H494.7z M502.3,149h4.7l-2.4-6.3
			L502.3,149z"/>
		<linearGradient id="SVGID_16_" gradientUnits="userSpaceOnUse" x1="139.2074" y1="-15.3131" x2="809.2073" y2="268.6869">
			<stop  offset="0" style="stop-color:#005EC7"/>
			<stop  offset="0.9991" style="stop-color:#6D66FF"/>
		</linearGradient>
		<path class="st17" d="M524.2,136.7v20.4h-4.7v-20.4H524.2z"/>
		<linearGradient id="SVGID_17_" gradientUnits="userSpaceOnUse" x1="141.4574" y1="-20.6214" x2="811.4575" y2="263.3786">
			<stop  offset="0" style="stop-color:#005EC7"/>
			<stop  offset="0.9991" style="stop-color:#6D66FF"/>
		</linearGradient>
		<path class="st18" d="M530,155.8l1.3-3.7c0.6,0.3,1.4,0.7,2.4,0.9s1.8,0.4,2.5,0.4c1,0,1.8-0.2,2.3-0.5s0.8-0.8,0.8-1.4
			c0-0.4-0.2-0.7-0.6-1c-0.4-0.3-1.1-0.8-2-1.3c-0.2-0.1-0.5-0.3-0.9-0.5c-1.4-0.8-2.4-1.5-3.2-2s-1.5-1.2-2-2s-0.9-1.7-0.9-2.8
			c0-1.1,0.3-2,0.9-2.9c0.6-0.8,1.4-1.5,2.5-2c1.1-0.5,2.4-0.7,3.9-0.7c1,0,2,0.1,3.1,0.4c1.1,0.3,2,0.7,2.8,1.2l-1.4,3.4
			c-1-0.4-1.8-0.7-2.4-0.8c-0.6-0.2-1.3-0.2-2-0.2c-0.7,0-1.3,0.2-1.8,0.5c-0.5,0.3-0.7,0.7-0.7,1.3c0,0.4,0.2,0.8,0.6,1.2
			c0.4,0.3,1,0.7,1.9,1.2c0.3,0.1,0.6,0.3,1,0.5c1.4,0.8,2.5,1.5,3.3,2.1c0.8,0.5,1.4,1.2,2,2c0.6,0.8,0.9,1.7,0.9,2.8
			c0,1.1-0.3,2.1-0.9,3s-1.5,1.6-2.7,2.1c-1.2,0.5-2.6,0.8-4.2,0.8c-0.9,0-2.1-0.2-3.3-0.5S530.7,156.2,530,155.8z"/>
		<linearGradient id="SVGID_18_" gradientUnits="userSpaceOnUse" x1="145.5741" y1="-30.3333" x2="815.5741" y2="253.6667">
			<stop  offset="0" style="stop-color:#005EC7"/>
			<stop  offset="0.9991" style="stop-color:#6D66FF"/>
		</linearGradient>
		<path class="st19" d="M566.7,157.1h-8.5v-20.4h8.5c2,0,3.8,0.4,5.2,1.3c1.4,0.9,2.5,2,3.2,3.6s1.1,3.3,1.1,5.2
			c0,2.1-0.4,3.9-1.2,5.5c-0.8,1.5-1.9,2.7-3.3,3.6C570.3,156.7,568.6,157.1,566.7,157.1z M566.7,140.5h-3.8v12.8h3.6
			c1.5,0,2.7-0.5,3.6-1.6s1.3-2.7,1.3-4.9c0-1.9-0.4-3.5-1.2-4.6S568.2,140.5,566.7,140.5z"/>
		<linearGradient id="SVGID_19_" gradientUnits="userSpaceOnUse" x1="149.3122" y1="-39.1519" x2="819.3122" y2="244.8481">
			<stop  offset="0" style="stop-color:#005EC7"/>
			<stop  offset="0.9991" style="stop-color:#6D66FF"/>
		</linearGradient>
		<path class="st20" d="M595.9,153.4l0.6,3.7h-14.6v-20.4h12.9l0.6,3.7h-8.8v4.6h6.5l0.6,3.7h-7.1v4.8H595.9z"/>
		<linearGradient id="SVGID_20_" gradientUnits="userSpaceOnUse" x1="154.039" y1="-50.3033" x2="824.039" y2="233.6967">
			<stop  offset="0" style="stop-color:#005EC7"/>
			<stop  offset="0.9991" style="stop-color:#6D66FF"/>
		</linearGradient>
		<path class="st21" d="M615,144.9v12.2h-4.7v-20.4h4.5l8.6,12.3v-12.3h4.7v20.4h-4.5L615,144.9z"/>
		<linearGradient id="SVGID_21_" gradientUnits="userSpaceOnUse" x1="157.8159" y1="-59.2136" x2="827.8159" y2="224.7864">
			<stop  offset="0" style="stop-color:#005EC7"/>
			<stop  offset="0.9991" style="stop-color:#6D66FF"/>
		</linearGradient>
		<path class="st22" d="M644,136.2c2.1,0,4,0.5,5.5,1.4s2.7,2.2,3.6,3.8c0.8,1.6,1.2,3.4,1.2,5.3c0,2.1-0.4,3.9-1.3,5.6
			c-0.9,1.6-2.1,2.9-3.6,3.8c-1.6,0.9-3.3,1.4-5.3,1.4c-2.1,0-3.9-0.5-5.5-1.4c-1.6-0.9-2.7-2.2-3.6-3.8c-0.8-1.6-1.2-3.4-1.2-5.3
			c0-2.1,0.4-3.9,1.3-5.5s2.1-2.9,3.6-3.8C640.2,136.7,642,136.3,644,136.2z M638.6,147c0,2,0.5,3.6,1.5,4.8c1,1.2,2.3,1.8,3.9,1.8
			c1,0,1.9-0.3,2.8-0.8c0.8-0.5,1.5-1.3,2-2.3c0.5-1,0.7-2.3,0.7-3.8c0-1.3-0.2-2.4-0.7-3.4c-0.4-1-1.1-1.8-1.9-2.4
			c-0.8-0.6-1.8-0.9-2.8-0.9c-1,0-1.9,0.3-2.7,0.8c-0.8,0.6-1.5,1.4-2,2.4C638.8,144.4,638.6,145.6,638.6,147z"/>
		<linearGradient id="SVGID_22_" gradientUnits="userSpaceOnUse" x1="161.6445" y1="-68.2458" x2="831.6445" y2="215.7542">
			<stop  offset="0" style="stop-color:#005EC7"/>
			<stop  offset="0.9991" style="stop-color:#6D66FF"/>
		</linearGradient>
		<path class="st23" d="M657.7,136.7h17l0.6,3.7h-6.8v16.7h-4.7v-16.7h-6.1V136.7z"/>
		<linearGradient id="SVGID_23_" gradientUnits="userSpaceOnUse" x1="163.9017" y1="-73.5709" x2="833.9017" y2="210.4292">
			<stop  offset="0" style="stop-color:#005EC7"/>
			<stop  offset="0.9991" style="stop-color:#6D66FF"/>
		</linearGradient>
		<path class="st24" d="M677.9,157.1l7.8-20.4h4.4l7.7,20.2l-4.6,0.5l-1.6-4.7h-7.4l-1.6,4.4H677.9z M685.5,149h4.7l-2.4-6.3
			L685.5,149z"/>
		<linearGradient id="SVGID_24_" gradientUnits="userSpaceOnUse" x1="167.1069" y1="-81.1325" x2="837.1069" y2="202.8675">
			<stop  offset="0" style="stop-color:#005EC7"/>
			<stop  offset="0.9991" style="stop-color:#6D66FF"/>
		</linearGradient>
		<path class="st25" d="M707.4,136.7v20.4h-4.7v-20.4H707.4z"/>
		<linearGradient id="SVGID_25_" gradientUnits="userSpaceOnUse" x1="169.2997" y1="-86.3057" x2="839.2997" y2="197.6943">
			<stop  offset="0" style="stop-color:#005EC7"/>
			<stop  offset="0.9991" style="stop-color:#6D66FF"/>
		</linearGradient>
		<path class="st26" d="M714.4,157.1v-20.4h7.5c2.4,0,4.4,0.6,5.9,1.7c1.5,1.1,2.3,2.8,2.3,5c0,1.2-0.3,2.3-0.8,3.2
			c-0.6,0.9-1.3,1.6-2.3,2.2l4.8,8.4h-5.2l-3.8-7.1h-3.7v7.1H714.4z M721.8,140.5h-2.7v5.8h2.8c1,0,1.8-0.3,2.5-0.8
			c0.6-0.5,0.9-1.2,0.9-2.1c0-1-0.3-1.7-0.9-2.2C723.8,140.7,722.9,140.5,721.8,140.5z"/>
		<linearGradient id="SVGID_26_" gradientUnits="userSpaceOnUse" x1="172.9077" y1="-94.8174" x2="842.9077" y2="189.1826">
			<stop  offset="0" style="stop-color:#005EC7"/>
			<stop  offset="0.9991" style="stop-color:#6D66FF"/>
		</linearGradient>
		<path class="st27" d="M750.8,153.4l0.6,3.7h-14.6v-20.4h12.9l0.6,3.7h-8.8v4.6h6.5l0.6,3.7h-7.1v4.8H750.8z"/>
	</g>
	<linearGradient id="SVGID_27_" gradientUnits="userSpaceOnUse" x1="79.7216" y1="125.023" x2="749.7216" y2="409.023">
		<stop  offset="0" style="stop-color:#005EC7"/>
		<stop  offset="0.9991" style="stop-color:#6D66FF"/>
	</linearGradient>
	<path class="st28" d="M190.1,191c-12.1,15.1-30.6,24.8-51.5,24.8c-36.3,0-65.8-29.5-65.8-65.8c0-36.3,29.5-65.8,65.8-65.8
		c20.8,0,39.4,9.7,51.5,24.8h5.3c-12.7-17.6-33.4-29-56.7-29c-38.7,0-70,31.3-70,70c0,38.7,31.3,70,70,70c23.3,0,44-11.4,56.7-29
		H190.1z"/>
	<linearGradient id="SVGID_28_" gradientUnits="userSpaceOnUse" x1="79.5363" y1="125.4602" x2="749.5363" y2="409.4602">
		<stop  offset="0" style="stop-color:#005EC7"/>
		<stop  offset="0.9991" style="stop-color:#6D66FF"/>
	</linearGradient>
	<path class="st29" d="M166.3,144.4l-8.5-7.9v-12.9H148v3.8l-9.8-9.1l-28.1,26.1c-0.4,0.4-0.4,1,0,1.4c0.4,0.4,1,0.4,1.4,0l3.3-3
		v32.7h47v-32.7l3.3,3c0.2,0.2,0.4,0.3,0.7,0.3c0.3,0,0.5-0.1,0.7-0.3C166.7,145.4,166.7,144.7,166.3,144.4L166.3,144.4z M150,125.5
		h5.9v9.2l-5.9-5.5V125.5z M132.3,173.5v-20.6c0-0.5,0.4-0.9,0.9-0.9h9.9c0.5,0,0.9,0.4,0.9,0.9v20.6H132.3z M159.8,173.5h-13.7
		v-20.6c0-1.6-1.3-2.9-2.9-2.9h-9.9c-1.6,0-2.9,1.3-2.9,2.9v20.6h-13.7V141l21.5-20l14,13l5.6,5.2l2,1.8V173.5z M159.8,173.5"/>
</g>
<g id="Calque_2" class="st0">
	<g class="st1">
		<g>
			<linearGradient id="SVGID_29_" gradientUnits="userSpaceOnUse" x1="88.9979" y1="109.5197" x2="620.9979" y2="294.5197">
				<stop  offset="0" style="stop-color:#005EC7"/>
				<stop  offset="0.9991" style="stop-color:#6D66FF"/>
			</linearGradient>
			<path class="st30" d="M189.2,155.6l1.3-3.7c0.6,0.3,1.4,0.7,2.4,0.9c0.9,0.3,1.8,0.4,2.5,0.4c1,0,1.8-0.2,2.3-0.5
				c0.5-0.3,0.8-0.8,0.8-1.4c0-0.4-0.2-0.7-0.6-1c-0.4-0.3-1.1-0.8-2-1.3c-0.2-0.1-0.5-0.3-0.9-0.5c-1.4-0.8-2.4-1.5-3.2-2
				s-1.5-1.2-2-2c-0.6-0.8-0.9-1.7-0.9-2.8c0-1.1,0.3-2,0.9-2.9c0.6-0.8,1.4-1.5,2.5-2c1.1-0.5,2.4-0.7,3.9-0.7c1,0,2,0.1,3.1,0.4
				c1.1,0.3,2,0.7,2.8,1.2l-1.4,3.4c-1-0.4-1.8-0.7-2.4-0.8c-0.6-0.2-1.3-0.2-2-0.2c-0.7,0-1.3,0.2-1.8,0.5
				c-0.5,0.3-0.7,0.7-0.7,1.3c0,0.4,0.2,0.8,0.6,1.2c0.4,0.3,1,0.7,1.9,1.2c0.3,0.1,0.6,0.3,1,0.5c1.4,0.8,2.5,1.5,3.3,2.1
				s1.4,1.2,2,2c0.6,0.8,0.9,1.7,0.9,2.8c0,1.1-0.3,2.1-0.9,3s-1.5,1.6-2.7,2.1c-1.2,0.5-2.6,0.8-4.2,0.8c-0.9,0-2.1-0.2-3.3-0.5
				S189.9,156,189.2,155.6z"/>
			<linearGradient id="SVGID_30_" gradientUnits="userSpaceOnUse" x1="90.6273" y1="104.8339" x2="622.6273" y2="289.8339">
				<stop  offset="0" style="stop-color:#005EC7"/>
				<stop  offset="0.9991" style="stop-color:#6D66FF"/>
			</linearGradient>
			<path class="st31" d="M213.3,136.5v20.4h-4.7v-20.4H213.3z"/>
			<linearGradient id="SVGID_31_" gradientUnits="userSpaceOnUse" x1="92.6436" y1="99.0357" x2="624.6436" y2="284.0357">
				<stop  offset="0" style="stop-color:#005EC7"/>
				<stop  offset="0.9991" style="stop-color:#6D66FF"/>
			</linearGradient>
			<path class="st32" d="M234.3,146.1l-3.3,4.5l-1.9,0.3l-4.1-5.1v11.1h-4.7v-20.4h3.1l6.5,8.6l5.9-8.6h3v20.4h-4.7V146.1z"/>
			<linearGradient id="SVGID_32_" gradientUnits="userSpaceOnUse" x1="95.6309" y1="90.4453" x2="627.6309" y2="275.4453">
				<stop  offset="0" style="stop-color:#005EC7"/>
				<stop  offset="0.9991" style="stop-color:#6D66FF"/>
			</linearGradient>
			<path class="st33" d="M245.7,136.5h4.7V149c0,1.4,0.4,2.5,1.1,3.3c0.7,0.7,1.7,1.1,3,1.1c1.2,0,2.2-0.4,3-1.1
				c0.7-0.8,1.1-1.8,1.1-3.3v-12.5h4.7v12.8c0,1.6-0.4,3-1.1,4.2c-0.7,1.2-1.8,2.1-3.1,2.8c-1.3,0.7-2.9,1-4.6,1
				c-1.7,0-3.3-0.3-4.6-1c-1.3-0.7-2.4-1.6-3.1-2.8c-0.7-1.2-1.1-2.6-1.1-4.2L245.7,136.5z"/>
			<linearGradient id="SVGID_33_" gradientUnits="userSpaceOnUse" x1="97.249" y1="85.7921" x2="629.249" y2="270.7921">
				<stop  offset="0" style="stop-color:#005EC7"/>
				<stop  offset="0.9991" style="stop-color:#6D66FF"/>
			</linearGradient>
			<path class="st34" d="M274.7,153.2h8.9l0.5,3.7H270v-20.4h4.7V153.2z"/>
			<linearGradient id="SVGID_34_" gradientUnits="userSpaceOnUse" x1="99.4643" y1="79.4217" x2="631.4643" y2="264.4217">
				<stop  offset="0" style="stop-color:#005EC7"/>
				<stop  offset="0.9991" style="stop-color:#6D66FF"/>
			</linearGradient>
			<path class="st35" d="M286.8,156.9l7.8-20.4h4.4l7.7,20.2l-4.6,0.5l-1.6-4.7h-7.4l-1.6,4.4H286.8z M294.4,148.8h4.7l-2.4-6.3
				L294.4,148.8z"/>
			<linearGradient id="SVGID_35_" gradientUnits="userSpaceOnUse" x1="102.4936" y1="70.7102" x2="634.4936" y2="255.7103">
				<stop  offset="0" style="stop-color:#005EC7"/>
				<stop  offset="0.9991" style="stop-color:#6D66FF"/>
			</linearGradient>
			<path class="st36" d="M309.4,136.5h17l0.6,3.7h-6.8v16.7h-4.7v-16.7h-6.1V136.5z"/>
			<linearGradient id="SVGID_36_" gradientUnits="userSpaceOnUse" x1="104.3609" y1="65.3405" x2="636.3609" y2="250.3405">
				<stop  offset="0" style="stop-color:#005EC7"/>
				<stop  offset="0.9991" style="stop-color:#6D66FF"/>
			</linearGradient>
			<path class="st37" d="M345.9,153.2l0.6,3.7h-14.6v-20.4h12.9l0.6,3.7h-8.8v4.6h6.5l0.6,3.7h-7.1v4.8H345.9z"/>
			<linearGradient id="SVGID_37_" gradientUnits="userSpaceOnUse" x1="107.0262" y1="57.6762" x2="639.0261" y2="242.6761">
				<stop  offset="0" style="stop-color:#005EC7"/>
				<stop  offset="0.9991" style="stop-color:#6D66FF"/>
			</linearGradient>
			<path class="st38" d="M351.3,136.5h4.7V149c0,1.4,0.4,2.5,1.1,3.3c0.7,0.7,1.7,1.1,3,1.1c1.2,0,2.2-0.4,3-1.1s1.1-1.8,1.1-3.3
				v-12.5h4.7v12.8c0,1.6-0.4,3-1.1,4.2c-0.7,1.2-1.8,2.1-3.1,2.8c-1.3,0.7-2.9,1-4.6,1s-3.3-0.3-4.6-1c-1.3-0.7-2.4-1.6-3.1-2.8
				c-0.7-1.2-1.1-2.6-1.1-4.2L351.3,136.5z"/>
			<linearGradient id="SVGID_38_" gradientUnits="userSpaceOnUse" x1="108.9131" y1="52.25" x2="640.913" y2="237.25">
				<stop  offset="0" style="stop-color:#005EC7"/>
				<stop  offset="0.9991" style="stop-color:#6D66FF"/>
			</linearGradient>
			<path class="st39" d="M375.6,156.9v-20.4h7.5c2.4,0,4.4,0.6,5.9,1.7c1.5,1.1,2.3,2.8,2.3,5c0,1.2-0.3,2.3-0.8,3.2
				c-0.6,0.9-1.3,1.6-2.3,2.2l4.8,8.4h-5.2l-3.8-7.1h-3.7v7.1H375.6z M383,140.3h-2.7v5.8h2.8c1,0,1.8-0.3,2.5-0.8
				c0.6-0.5,0.9-1.2,0.9-2.1c0-1-0.3-1.7-0.9-2.2S384.1,140.3,383,140.3z"/>
			<linearGradient id="SVGID_39_" gradientUnits="userSpaceOnUse" x1="112.307" y1="42.4901" x2="644.307" y2="227.4901">
				<stop  offset="0" style="stop-color:#005EC7"/>
				<stop  offset="0.9991" style="stop-color:#6D66FF"/>
			</linearGradient>
			<path class="st40" d="M415.1,156.9h-8.5v-20.4h8.5c2,0,3.8,0.4,5.2,1.3s2.5,2,3.2,3.6c0.7,1.5,1.1,3.3,1.1,5.2
				c0,2.1-0.4,3.9-1.2,5.5c-0.8,1.5-1.9,2.7-3.3,3.6C418.8,156.5,417.1,156.9,415.1,156.9z M415.1,140.3h-3.8v12.8h3.6
				c1.5,0,2.7-0.5,3.6-1.6c0.9-1.1,1.3-2.7,1.3-4.9c0-1.9-0.4-3.5-1.2-4.6C417.8,140.9,416.7,140.3,415.1,140.3z"/>
			<linearGradient id="SVGID_40_" gradientUnits="userSpaceOnUse" x1="114.973" y1="34.8234" x2="646.973" y2="219.8235">
				<stop  offset="0" style="stop-color:#005EC7"/>
				<stop  offset="0.9991" style="stop-color:#6D66FF"/>
			</linearGradient>
			<path class="st41" d="M444.3,153.2l0.6,3.7h-14.6v-20.4h12.9l0.6,3.7h-8.8v4.6h6.5l0.6,3.7h-7.1v4.8H444.3z"/>
			<linearGradient id="SVGID_41_" gradientUnits="userSpaceOnUse" x1="118.357" y1="25.0923" x2="650.357" y2="210.0923">
				<stop  offset="0" style="stop-color:#005EC7"/>
				<stop  offset="0.9991" style="stop-color:#6D66FF"/>
			</linearGradient>
			<path class="st42" d="M470.3,148.9h-3.9l0.4-3.5h7.7v10.3c-0.8,0.5-1.8,0.8-3,1.1c-1.2,0.3-2.5,0.4-3.6,0.4c-2.1,0-4-0.4-5.6-1.3
				s-2.8-2.1-3.7-3.7c-0.9-1.6-1.3-3.4-1.3-5.5c0-2.1,0.5-4,1.4-5.6s2.3-2.9,3.9-3.8c1.7-0.9,3.5-1.3,5.5-1.3c0.9,0,2,0.1,3.1,0.4
				c1.2,0.3,2.2,0.6,2.9,1.1l-1.4,3.2c-1-0.3-1.9-0.5-2.5-0.7c-0.6-0.1-1.3-0.2-2.1-0.2c-1,0-2,0.3-3,0.8c-0.9,0.5-1.7,1.3-2.2,2.3
				c-0.6,1-0.9,2.3-0.9,3.7c0,1.4,0.3,2.6,0.8,3.6c0.5,1,1.2,1.8,2.1,2.3c0.9,0.5,1.8,0.8,2.8,0.8c0.7,0,1.5-0.1,2.4-0.2V148.9z"/>
			<linearGradient id="SVGID_42_" gradientUnits="userSpaceOnUse" x1="120.1092" y1="20.0536" x2="652.1092" y2="205.0536">
				<stop  offset="0" style="stop-color:#005EC7"/>
				<stop  offset="0.9991" style="stop-color:#6D66FF"/>
			</linearGradient>
			<path class="st43" d="M478.2,156.9l7.8-20.4h4.4l7.7,20.2l-4.6,0.5l-1.6-4.7h-7.4l-1.6,4.4H478.2z M485.7,148.8h4.7l-2.4-6.3
				L485.7,148.8z"/>
			<linearGradient id="SVGID_43_" gradientUnits="userSpaceOnUse" x1="122.3795" y1="13.525" x2="654.3795" y2="198.525">
				<stop  offset="0" style="stop-color:#005EC7"/>
				<stop  offset="0.9991" style="stop-color:#6D66FF"/>
			</linearGradient>
			<path class="st44" d="M507.6,136.5v20.4H503v-20.4H507.6z"/>
			<linearGradient id="SVGID_44_" gradientUnits="userSpaceOnUse" x1="124.3538" y1="7.8476" x2="656.3538" y2="192.8476">
				<stop  offset="0" style="stop-color:#005EC7"/>
				<stop  offset="0.9991" style="stop-color:#6D66FF"/>
			</linearGradient>
			<path class="st45" d="M519.4,144.7v12.2h-4.7v-20.4h4.5l8.6,12.3v-12.3h4.7v20.4H528L519.4,144.7z"/>
			<linearGradient id="SVGID_45_" gradientUnits="userSpaceOnUse" x1="126.6629" y1="1.2073" x2="658.6628" y2="186.2073">
				<stop  offset="0" style="stop-color:#005EC7"/>
				<stop  offset="0.9991" style="stop-color:#6D66FF"/>
			</linearGradient>
			<path class="st46" d="M538.3,155.6l1.3-3.7c0.6,0.3,1.4,0.7,2.4,0.9s1.8,0.4,2.5,0.4c1,0,1.8-0.2,2.3-0.5s0.8-0.8,0.8-1.4
				c0-0.4-0.2-0.7-0.6-1c-0.4-0.3-1.1-0.8-2-1.3c-0.2-0.1-0.5-0.3-0.9-0.5c-1.4-0.8-2.4-1.5-3.2-2s-1.5-1.2-2-2
				c-0.6-0.8-0.9-1.7-0.9-2.8c0-1.1,0.3-2,0.9-2.9c0.6-0.8,1.4-1.5,2.5-2c1.1-0.5,2.4-0.7,3.9-0.7c1,0,2,0.1,3.1,0.4
				c1.1,0.3,2,0.7,2.8,1.2l-1.4,3.4c-1-0.4-1.8-0.7-2.4-0.8s-1.3-0.2-2-0.2c-0.7,0-1.3,0.2-1.8,0.5c-0.5,0.3-0.7,0.7-0.7,1.3
				c0,0.4,0.2,0.8,0.6,1.2c0.4,0.3,1,0.7,1.9,1.2c0.3,0.1,0.6,0.3,1,0.5c1.4,0.8,2.5,1.5,3.3,2.1c0.8,0.5,1.4,1.2,2,2
				s0.9,1.7,0.9,2.8c0,1.1-0.3,2.1-0.9,3s-1.5,1.6-2.7,2.1c-1.2,0.5-2.6,0.8-4.2,0.8c-0.9,0-2.1-0.2-3.3-0.5S539,156,538.3,155.6z"
				/>
		</g>
		<linearGradient id="SVGID_46_" gradientUnits="userSpaceOnUse" x1="81.8817" y1="129.9834" x2="613.8817" y2="314.9835">
			<stop  offset="0" style="stop-color:#005EC7"/>
			<stop  offset="0.9991" style="stop-color:#6D66FF"/>
		</linearGradient>
		<path class="st47" d="M190.9,191c-12.1,15.1-30.6,24.8-51.5,24.8c-36.3,0-65.8-29.5-65.8-65.8c0-36.3,29.5-65.8,65.8-65.8
			c20.8,0,39.4,9.7,51.5,24.8h5.3c-12.7-17.6-33.4-29-56.7-29c-38.7,0-70,31.3-70,70c0,38.7,31.3,70,70,70c23.3,0,44-11.4,56.7-29
			H190.9z"/>
		<g>
			<linearGradient id="SVGID_47_" gradientUnits="userSpaceOnUse" x1="80.9909" y1="132.5451" x2="612.9909" y2="317.545">
				<stop  offset="0" style="stop-color:#005EC7"/>
				<stop  offset="0.9991" style="stop-color:#6D66FF"/>
			</linearGradient>
			<path class="st48" d="M168.7,143.8c-0.1-1.7-2.1-3-6.1-4c0.1-0.3,0.2-0.6,0.2-0.9V132h0c-0.4-5.7-23.8-5.9-26.5-5.9
				c-2.7,0-26.2,0.2-26.5,5.9h0v6.9c0,1.9,2.4,3.3,6,4.4c0,0.2-0.1,0.3-0.1,0.5h0v6.9c-3.9,1-5.8,2.3-5.9,3.9h0v6.9
				c0,1.3,1.2,2.4,3.1,3.3c-0.1,0.2-0.1,0.4-0.1,0.6h0v6.9c0,3.3,7.4,5.3,15.5,6.2c0.1,0,0.1,0,0.2,0c0,0,0,0,0.1,0
				c1.6,0.2,3.2,0.3,4.8,0.4c0,0,0.1,0,0.1,0c0,0,0,0,0.1,0c2,0.1,4,0.2,5.8,0.2s3.8-0.1,5.8-0.2c0,0,0,0,0.1,0c0,0,0.1,0,0.1,0
				c1.6-0.1,3.2-0.2,4.8-0.4c0,0,0,0,0.1,0c0.1,0,0.1,0,0.2,0c8.2-1,15.5-3,15.5-6.2v-6.9h0c-0.1-1.2-1.1-2.2-3.1-3.1
				c0.1-0.3,0.2-0.6,0.2-0.9V155c3.5-1.1,5.9-2.5,5.9-4.4L168.7,143.8L168.7,143.8z M160.8,161.8l-0.3,0.3c-0.5,0.5-1.4,0.9-2.5,1.4
				v-4.7c1.2-0.4,2.2-0.9,3-1.4v4.1C160.9,161.5,160.9,161.6,160.8,161.8L160.8,161.8z M138.8,166.3c-0.1,0-0.3,0-0.4,0
				c-0.4,0-0.7,0-1.1,0v-4.9c0.3,0,0.5,0,0.8,0l0.2,0c1,0,2,0,3-0.1v4.9c-0.2,0-0.4,0-0.6,0C140,166.3,139.4,166.3,138.8,166.3
				L138.8,166.3z M134.5,166.3c-0.5,0-0.9,0-1.3,0l-0.2,0c-0.5,0-1.1,0-1.6-0.1v-4.9c1,0,2,0.1,3,0.1c0.1,0,0.1,0,0.2,0
				c0.3,0,0.5,0,0.8,0v4.9c-0.2,0-0.4,0-0.6,0C134.7,166.3,134.6,166.3,134.5,166.3L134.5,166.3z M116.8,164.1
				C116.8,164.1,116.7,164.1,116.8,164.1l-0.1-4.8c0.9,0.2,1.9,0.5,2.9,0.7v4.8c-0.9-0.2-1.7-0.4-2.5-0.6
				C117,164.2,116.9,164.1,116.8,164.1L116.8,164.1z M137.5,172.2c0.3,0,0.5,0,0.8,0v4.9c-1.4,0-2.7,0-3.9-0.1v-4.9c1,0,2,0.1,3,0.1
				C137.4,172.2,137.4,172.2,137.5,172.2L137.5,172.2z M141.2,172.2c1,0,2-0.1,3-0.1v4.9c-1.3,0.1-2.6,0.1-3.9,0.1v-4.9
				c0.3,0,0.5,0,0.8,0C141.1,172.2,141.2,172.2,141.2,172.2L141.2,172.2z M149.1,171.8v4.9c-0.9,0.1-1.9,0.2-2.9,0.3V172
				C147.2,172,148.1,171.9,149.1,171.8L149.1,171.8z M151.1,171.6c1-0.1,2-0.3,2.9-0.4v4.8c-0.9,0.2-1.9,0.3-2.9,0.5V171.6z
				 M156,170.8c1-0.2,2-0.4,2.9-0.7v4.7c-0.9,0.3-1.9,0.5-2.9,0.7V170.8z M122.6,170.8v4.8c-1.1-0.2-2.1-0.5-2.9-0.7v-4.7
				C120.6,170.4,121.5,170.6,122.6,170.8L122.6,170.8z M124.5,171.2c0.9,0.2,1.9,0.3,2.9,0.4v4.9c-1-0.1-2-0.3-2.9-0.5V171.2z
				 M129.5,171.8c1,0.1,2,0.2,2.9,0.2v4.9c-1-0.1-2-0.2-2.9-0.3V171.8z M127,165.9c-0.1,0-0.2,0-0.3,0c-0.1,0-0.1,0-0.2,0V161
				c1,0.1,1.9,0.2,2.9,0.2v4.9C128.6,166.1,127.8,166,127,165.9L127,165.9z M124.5,160.8v4.9c-1-0.1-2-0.3-2.9-0.5v-4.8
				C122.6,160.5,123.5,160.6,124.5,160.8L124.5,160.8z M143.9,166.1c-0.2,0-0.4,0-0.7,0v-4.9c1-0.1,2-0.1,3-0.2v4.9
				c-0.6,0.1-1.2,0.1-1.9,0.2C144.1,166,144,166.1,143.9,166.1L143.9,166.1z M148.1,165.6v-4.9c1-0.1,2-0.3,3-0.4v4.8
				C150.1,165.3,149.2,165.5,148.1,165.6L148.1,165.6z M153,160c1-0.2,2-0.4,3-0.7v4.7c-0.9,0.3-1.9,0.5-3,0.7V160z M139.6,155.5
				c-0.7,0-1.5,0-2.2-0.1c0,0-0.1,0-0.1,0v-4.9c1,0,2,0.1,3,0.1c0.1,0,0.1,0,0.2,0c0.3,0,0.5,0,0.8,0v4.9c-0.5,0-1,0-1.4,0
				C139.7,155.5,139.7,155.5,139.6,155.5L139.6,155.5z M116.7,141.5v-4.7c0.9,0.2,1.9,0.5,2.9,0.7v4.8c-0.1,0-0.2-0.1-0.4-0.1
				c-0.5-0.1-1-0.2-1.5-0.4C117.4,141.7,117,141.6,116.7,141.5L116.7,141.5z M134.5,138.8c0.3,0,0.5,0,0.8,0v4.9
				c-1.3,0-2.6,0-3.9-0.1v-4.9c1,0,2,0.1,3,0.1C134.4,138.8,134.5,138.8,134.5,138.8L134.5,138.8z M138.3,138.8c1,0,2,0,3-0.1v4.9
				c-0.2,0-0.3,0-0.5,0c0,0,0,0,0,0c-0.7,0-1.3,0-2,0.1c-0.1,0-0.2,0-0.3,0c-0.4,0-0.7,0-1.1,0v-4.9c0.3,0,0.5,0,0.8,0L138.3,138.8z
				 M160.7,139.3L160.7,139.3l-0.4,0.3c-0.5,0.4-1.3,0.8-2.3,1.2v-4.7c1.2-0.4,2.2-0.9,3-1.3v4.1C160.9,139,160.8,139.2,160.7,139.3
				L160.7,139.3z M148.1,143v-4.9c1-0.1,2-0.3,3-0.4v4.8C150.1,142.7,149.2,142.9,148.1,143L148.1,143z M153,142.2v-4.8
				c1-0.2,2-0.4,3-0.7v4.7C155.1,141.7,154.1,142,153,142.2L153,142.2z M146.2,138.4v4.9c-1,0.1-1.9,0.2-3,0.3v-4.9
				C144.2,138.6,145.2,138.5,146.2,138.4L146.2,138.4z M126.5,143.3v-4.9c1,0.1,1.9,0.2,2.9,0.2v4.9
				C128.5,143.4,127.5,143.4,126.5,143.3L126.5,143.3z M124.5,138.2v4.9c-0.2,0-0.4,0-0.6-0.1c-0.1,0-0.2,0-0.4-0.1
				c-0.6-0.1-1.1-0.2-1.7-0.3c-0.1,0-0.2,0-0.3-0.1v-4.8C122.6,137.9,123.5,138,124.5,138.2L124.5,138.2z M135.1,155.3
				c-0.1,0-0.3,0-0.4,0c-0.6,0-1.2-0.1-1.8-0.2c-0.1,0-0.3,0-0.4,0c0,0-0.1,0-0.1,0v-4.9c1,0.1,2,0.2,3,0.2v4.9
				C135.3,155.3,135.2,155.3,135.1,155.3L135.1,155.3z M128.6,154.6c-0.4-0.1-0.8-0.1-1.1-0.2v-4.8c1,0.2,1.9,0.3,3,0.4v4.9
				C129.8,154.7,129.3,154.7,128.6,154.6C128.7,154.6,128.6,154.6,128.6,154.6L128.6,154.6z M125.5,149.2v4.8
				c-1.1-0.2-2.1-0.5-3-0.7v-4.7C123.5,148.8,124.5,149,125.5,149.2L125.5,149.2z M120.6,147.9v4.7c-1.5-0.6-2.5-1.2-2.9-1.7
				l-0.1-0.1c0,0,0-0.1,0-0.1v-4.1C118.5,147.1,119.4,147.5,120.6,147.9L120.6,147.9z M144.2,150.6c1,0,2,0,3-0.1v4.9
				c-1.3,0.1-2.6,0.1-3.9,0.1v-4.9c0.3,0,0.5,0,0.8,0L144.2,150.6z M156.9,154.4c-0.4,0.1-0.9,0.1-1.3,0.2c-0.3,0-0.5,0.1-0.8,0.1
				c-0.2,0-0.5,0.1-0.8,0.1V150c1-0.1,2-0.3,2.9-0.4L156.9,154.4C156.9,154.4,156.9,154.4,156.9,154.4L156.9,154.4z M150.2,155.2
				c-0.4,0-0.7,0-1.1,0.1v-4.9c1-0.1,2-0.1,2.9-0.2v4.9c-0.6,0.1-1.1,0.1-1.7,0.2C150.3,155.2,150.3,155.2,150.2,155.2L150.2,155.2z
				 M161.4,153.4c-0.5,0.1-1,0.3-1.5,0.4c-0.2,0.1-0.5,0.1-0.7,0.2c-0.1,0-0.2,0-0.2,0v-4.8c1-0.2,2-0.4,2.9-0.7v4.7
				C161.7,153.3,161.6,153.3,161.4,153.4L161.4,153.4z M166.8,143.8c-0.1,0.7-1.6,1.6-4.3,2.4c-3.5,1.1-8.9,2.1-15.8,2.4
				c-0.4,0-0.7,0-1.1,0c-0.3,0-0.6,0-0.9,0c-0.8,0-1.6,0-2.5,0c-0.8,0-1.7,0-2.5,0c-0.3,0-0.6,0-0.9,0c-0.4,0-0.7,0-1.1,0
				c-6.9-0.3-12.3-1.3-15.8-2.4c-2.7-0.8-4.2-1.7-4.3-2.4c0,0,0,0,0-0.1c0.1,0,0.1,0,0.2,0c0.4,0.1,0.8,0.2,1.2,0.3
				c2,0.4,4.1,0.8,6.4,1c0,0,0,0,0,0h0c1.6,0.2,3.2,0.3,4.9,0.4c0,0,0,0,0,0c0,0,0,0,0,0c1.2,0.1,2.4,0.1,3.7,0.1c0.8,0,1.5,0,2.2,0
				c0.5,0,1,0,1.6,0c7.1-0.1,13.8-1,18.4-2.3c0.2-0.1,0.4-0.1,0.6-0.2c0.1,0,0.3-0.1,0.4-0.1c0.4-0.1,0.7-0.2,1-0.4
				c0.1,0,0.1,0,0.2-0.1c0.3-0.1,0.5-0.2,0.8-0.3c0.1,0,0.1-0.1,0.2-0.1c0.3-0.1,0.5-0.2,0.8-0.4c0.1-0.1,0.2-0.1,0.3-0.2
				c0.1-0.1,0.2-0.1,0.3-0.2c0.1,0,0.1-0.1,0.2-0.1C165.5,142.4,166.7,143.4,166.8,143.8L166.8,143.8z M136.3,128
				c16.2,0,24.4,2.5,24.5,4c-0.1,0.7-1.6,1.5-4.3,2.4c-3.5,1.1-8.9,2.1-15.8,2.4c-0.4,0-0.7,0-1.1,0c-0.3,0-0.6,0-0.9,0
				c-0.8,0-1.6,0-2.5,0c-0.9,0-1.7,0-2.5,0c-0.3,0-0.6,0-0.9,0c-0.4,0-0.7,0-1.1,0c-6.9-0.3-12.3-1.3-15.8-2.4
				c-2.7-0.8-4.2-1.7-4.3-2.4C111.9,130.6,120.1,128,136.3,128L136.3,128z M111.8,138.8v-4.1c0.8,0.5,1.8,0.9,2.9,1.3v4.7
				C112.8,140.1,111.8,139.4,111.8,138.8L111.8,138.8z M116.5,152.4C116.5,152.5,116.6,152.5,116.5,152.4c1.4,1.4,4.2,2.5,7.6,3.3
				c0.1,0,0.2,0,0.2,0.1c0.3,0.1,0.5,0.1,0.8,0.2c3.2,0.7,7,1.2,11.1,1.4c0,0,0,0,0,0c0,0,0,0,0,0c1.3,0.1,2.7,0.1,4.1,0.2
				c0.6,0,1.2,0,1.8,0c0.7,0,1.4,0,2.1,0c1.3,0,2.6-0.1,3.8-0.1c0,0,0,0,0,0c0,0,0,0,0,0c4.2-0.2,8-0.7,11.3-1.4
				c-0.7,0.4-1.7,0.8-2.9,1.1c-3.7,1.1-9.5,2.2-17,2.4c-0.2,0-0.4,0-0.7,0c-0.2,0-0.5,0-0.7,0c-0.6,0-1.2,0-1.9,0
				c-0.9,0-1.7,0-2.5,0c-0.3,0-0.6,0-0.9,0c-0.4,0-0.7,0-1.1,0c-6.9-0.3-12.3-1.3-15.8-2.4c-2.7-0.8-4.2-1.7-4.3-2.4
				C111.9,154.3,112.9,153.3,116.5,152.4L116.5,152.4z M111.8,161.4v-4.1c0.8,0.5,1.8,0.9,2.9,1.4v4.7l-0.6-0.2l0,0
				C112.6,162.6,111.8,161.9,111.8,161.4L111.8,161.4z M114.7,172.2v-4.1c0.8,0.5,1.8,0.9,2.9,1.4v4.7
				C115.8,173.5,114.7,172.8,114.7,172.2L114.7,172.2z M160.9,174.2v-4.7c1.2-0.4,2.2-0.9,2.9-1.4v4.1
				C163.8,172.8,162.8,173.5,160.9,174.2L160.9,174.2z M163.8,165.4c-0.1,0.7-1.6,1.5-4.3,2.4c-3.5,1.1-8.9,2.1-15.8,2.4
				c-0.4,0-0.7,0-1.1,0c-0.3,0-0.6,0-0.9,0c-0.8,0-1.6,0-2.5,0c-0.8,0-1.7,0-2.5,0c-0.3,0-0.6,0-0.9,0c-0.4,0-0.7,0-1.1,0
				c-6.9-0.3-12.3-1.3-15.8-2.4c-2.6-0.8-4.1-1.7-4.3-2.3c0.3,0.1,0.6,0.2,0.9,0.3c0,0,0.1,0,0.1,0c0.3,0.1,0.5,0.2,0.8,0.2
				c0.1,0,0.2,0.1,0.3,0.1c0.2,0,0.3,0.1,0.5,0.1c3.6,0.9,8.1,1.6,13.1,1.9c0,0,0,0,0,0c1.5,0.1,3.1,0.1,4.7,0.2c0.4,0,0.8,0,1.2,0
				c0.5,0,1.1,0,1.7,0c1.4,0,2.8-0.1,4.2-0.2c0,0,0,0,0,0c0,0,0,0,0,0c1.7-0.1,3.3-0.2,4.9-0.4c0,0,0,0,0,0c0,0,0,0,0.1,0
				c1.7-0.2,3.4-0.5,4.9-0.7c0.3-0.1,0.6-0.1,0.9-0.2c0.1,0,0.1,0,0.2,0c2.9-0.6,5.4-1.4,7.1-2.3c0.1-0.1,0.2-0.1,0.3-0.2
				c0.1-0.1,0.2-0.1,0.3-0.2c0.1-0.1,0.2-0.1,0.3-0.2C163.2,164.6,163.8,165.2,163.8,165.4L163.8,165.4z M163.8,152.6v-4.7
				c1.2-0.4,2.2-0.9,2.9-1.4v4.1C166.8,151.2,165.7,151.9,163.8,152.6L163.8,152.6z M163.8,152.6"/>
		</g>
	</g>
</g>
<g id="Calque_3">
	<g>
		<linearGradient id="SVGID_48_" gradientUnits="userSpaceOnUse" x1="56.5419" y1="97.2842" x2="750.5419" y2="357.2842">
			<stop  offset="0" style="stop-color:#00B9C7"/>
			<stop  offset="0.9991" style="stop-color:#6D24FF"/>
		</linearGradient>
		<path class="st49" d="M182.3,155.8l1.3-3.7c0.6,0.3,1.4,0.7,2.4,0.9c0.9,0.3,1.8,0.4,2.5,0.4c1,0,1.8-0.2,2.3-0.5
			c0.5-0.3,0.8-0.8,0.8-1.4c0-0.4-0.2-0.7-0.6-1c-0.4-0.3-1.1-0.8-2-1.3c-0.2-0.1-0.5-0.3-0.9-0.5c-1.4-0.8-2.4-1.5-3.2-2
			s-1.5-1.2-2-2c-0.6-0.8-0.9-1.7-0.9-2.8c0-1.1,0.3-2,0.9-2.9c0.6-0.8,1.4-1.5,2.5-2c1.1-0.5,2.4-0.7,3.9-0.7c1,0,2,0.1,3.1,0.4
			c1.1,0.3,2,0.7,2.8,1.2l-1.4,3.4c-1-0.4-1.8-0.7-2.4-0.8c-0.6-0.2-1.3-0.2-2-0.2c-0.7,0-1.3,0.2-1.8,0.5c-0.5,0.3-0.7,0.7-0.7,1.3
			c0,0.4,0.2,0.8,0.6,1.2c0.4,0.3,1,0.7,1.9,1.2c0.3,0.1,0.6,0.3,1,0.5c1.4,0.8,2.5,1.5,3.3,2.1s1.4,1.2,2,2
			c0.6,0.8,0.9,1.7,0.9,2.8c0,1.1-0.3,2.1-0.9,3s-1.5,1.6-2.7,2.1c-1.2,0.5-2.6,0.8-4.2,0.8c-0.9,0-2.1-0.2-3.3-0.5
			S183,156.2,182.3,155.8z"/>
		<linearGradient id="SVGID_49_" gradientUnits="userSpaceOnUse" x1="58.404" y1="92.3139" x2="752.404" y2="352.3139">
			<stop  offset="0" style="stop-color:#00B9C7"/>
			<stop  offset="0.9991" style="stop-color:#6D24FF"/>
		</linearGradient>
		<path class="st50" d="M206.4,136.7v20.4h-4.7v-20.4H206.4z"/>
		<linearGradient id="SVGID_50_" gradientUnits="userSpaceOnUse" x1="60.7044" y1="86.1737" x2="754.7043" y2="346.1737">
			<stop  offset="0" style="stop-color:#00B9C7"/>
			<stop  offset="0.9991" style="stop-color:#6D24FF"/>
		</linearGradient>
		<path class="st51" d="M227.4,146.3l-3.3,4.5l-1.9,0.3l-4.1-5.1v11.1h-4.7v-20.4h3.1l6.5,8.6l5.9-8.6h3v20.4h-4.7V146.3z"/>
		<linearGradient id="SVGID_51_" gradientUnits="userSpaceOnUse" x1="64.1099" y1="77.0837" x2="758.1099" y2="337.0836">
			<stop  offset="0" style="stop-color:#00B9C7"/>
			<stop  offset="0.9991" style="stop-color:#6D24FF"/>
		</linearGradient>
		<path class="st52" d="M238.8,136.7h4.7v12.5c0,1.4,0.4,2.5,1.1,3.3c0.7,0.7,1.7,1.1,3,1.1c1.2,0,2.2-0.4,3-1.1
			c0.7-0.8,1.1-1.8,1.1-3.3v-12.5h4.7v12.8c0,1.6-0.4,3-1.1,4.2c-0.7,1.2-1.8,2.1-3.1,2.8c-1.3,0.7-2.9,1-4.6,1
			c-1.7,0-3.3-0.3-4.6-1c-1.3-0.7-2.4-1.6-3.1-2.8c-0.7-1.2-1.1-2.6-1.1-4.2L238.8,136.7z"/>
		<linearGradient id="SVGID_52_" gradientUnits="userSpaceOnUse" x1="65.9587" y1="72.1488" x2="759.9587" y2="332.1488">
			<stop  offset="0" style="stop-color:#00B9C7"/>
			<stop  offset="0.9991" style="stop-color:#6D24FF"/>
		</linearGradient>
		<path class="st53" d="M267.8,153.4h8.9l0.5,3.7h-14.1v-20.4h4.7V153.4z"/>
		<linearGradient id="SVGID_53_" gradientUnits="userSpaceOnUse" x1="68.486" y1="65.4028" x2="762.486" y2="325.4028">
			<stop  offset="0" style="stop-color:#00B9C7"/>
			<stop  offset="0.9991" style="stop-color:#6D24FF"/>
		</linearGradient>
		<path class="st54" d="M279.9,157.1l7.8-20.4h4.4l7.7,20.2l-4.6,0.5l-1.6-4.7h-7.4l-1.6,4.4H279.9z M287.5,149h4.7l-2.4-6.3
			L287.5,149z"/>
		<linearGradient id="SVGID_54_" gradientUnits="userSpaceOnUse" x1="71.9422" y1="56.1775" x2="765.9421" y2="316.1775">
			<stop  offset="0" style="stop-color:#00B9C7"/>
			<stop  offset="0.9991" style="stop-color:#6D24FF"/>
		</linearGradient>
		<path class="st55" d="M302.5,136.7h17l0.6,3.7h-6.8v16.7h-4.7v-16.7h-6.1V136.7z"/>
		<linearGradient id="SVGID_55_" gradientUnits="userSpaceOnUse" x1="74.0727" y1="50.4907" x2="768.0726" y2="310.4907">
			<stop  offset="0" style="stop-color:#00B9C7"/>
			<stop  offset="0.9991" style="stop-color:#6D24FF"/>
		</linearGradient>
		<path class="st56" d="M339,153.4l0.6,3.7H325v-20.4h12.9l0.6,3.7h-8.8v4.6h6.5l0.6,3.7h-7.1v4.8H339z"/>
		<linearGradient id="SVGID_56_" gradientUnits="userSpaceOnUse" x1="77.1107" y1="42.3814" x2="771.1107" y2="302.3814">
			<stop  offset="0" style="stop-color:#00B9C7"/>
			<stop  offset="0.9991" style="stop-color:#6D24FF"/>
		</linearGradient>
		<path class="st57" d="M344.5,136.7h4.7v12.5c0,1.4,0.4,2.5,1.1,3.3c0.7,0.7,1.7,1.1,3,1.1c1.2,0,2.2-0.4,3-1.1s1.1-1.8,1.1-3.3
			v-12.5h4.7v12.8c0,1.6-0.4,3-1.1,4.2c-0.7,1.2-1.8,2.1-3.1,2.8c-1.3,0.7-2.9,1-4.6,1s-3.3-0.3-4.6-1c-1.3-0.7-2.4-1.6-3.1-2.8
			c-0.7-1.2-1.1-2.6-1.1-4.2L344.5,136.7z"/>
		<linearGradient id="SVGID_57_" gradientUnits="userSpaceOnUse" x1="79.2739" y1="36.6073" x2="773.2739" y2="296.6073">
			<stop  offset="0" style="stop-color:#00B9C7"/>
			<stop  offset="0.9991" style="stop-color:#6D24FF"/>
		</linearGradient>
		<path class="st58" d="M368.8,157.1v-20.4h7.5c2.4,0,4.4,0.6,5.9,1.7c1.5,1.1,2.3,2.8,2.3,5c0,1.2-0.3,2.3-0.8,3.2
			c-0.6,0.9-1.3,1.6-2.3,2.2l4.8,8.4h-5.2l-3.8-7.1h-3.7v7.1H368.8z M376.1,140.5h-2.7v5.8h2.8c1,0,1.8-0.3,2.5-0.8
			c0.6-0.5,0.9-1.2,0.9-2.1c0-1-0.3-1.7-0.9-2.2C378.1,140.7,377.3,140.5,376.1,140.5z"/>
		<linearGradient id="SVGID_58_" gradientUnits="userSpaceOnUse" x1="83.1459" y1="26.2722" x2="777.1459" y2="286.2722">
			<stop  offset="0" style="stop-color:#00B9C7"/>
			<stop  offset="0.9991" style="stop-color:#6D24FF"/>
		</linearGradient>
		<path class="st59" d="M408.2,157.1h-8.5v-20.4h8.5c2,0,3.8,0.4,5.2,1.3c1.4,0.9,2.5,2,3.2,3.6s1.1,3.3,1.1,5.2
			c0,2.1-0.4,3.9-1.2,5.5c-0.8,1.5-1.9,2.7-3.3,3.6C411.9,156.7,410.2,157.1,408.2,157.1z M408.2,140.5h-3.8v12.8h3.6
			c1.5,0,2.7-0.5,3.6-1.6s1.3-2.7,1.3-4.9c0-1.9-0.4-3.5-1.2-4.6S409.8,140.5,408.2,140.5z"/>
		<linearGradient id="SVGID_59_" gradientUnits="userSpaceOnUse" x1="86.1799" y1="18.1736" x2="780.1799" y2="278.1736">
			<stop  offset="0" style="stop-color:#00B9C7"/>
			<stop  offset="0.9991" style="stop-color:#6D24FF"/>
		</linearGradient>
		<path class="st60" d="M437.4,153.4l0.6,3.7h-14.6v-20.4h12.9l0.6,3.7H428v4.6h6.5l0.6,3.7H428v4.8H437.4z"/>
		<linearGradient id="SVGID_60_" gradientUnits="userSpaceOnUse" x1="89.6622" y1="8.8785" x2="783.6622" y2="268.8784">
			<stop  offset="0" style="stop-color:#00B9C7"/>
			<stop  offset="0.9991" style="stop-color:#6D24FF"/>
		</linearGradient>
		<path class="st61" d="M456.6,145.2h6.3l0.5,3.7h-6.9v8.2h-4.7v-20.4h12.4l0.5,3.7h-8.3V145.2z"/>
		<linearGradient id="SVGID_61_" gradientUnits="userSpaceOnUse" x1="91.4211" y1="4.1836" x2="785.4211" y2="264.1837">
			<stop  offset="0" style="stop-color:#00B9C7"/>
			<stop  offset="0.9991" style="stop-color:#6D24FF"/>
		</linearGradient>
		<path class="st62" d="M474.7,136.7v20.4H470v-20.4H474.7z"/>
		<linearGradient id="SVGID_62_" gradientUnits="userSpaceOnUse" x1="93.6736" y1="-1.8287" x2="787.6736" y2="258.1713">
			<stop  offset="0" style="stop-color:#00B9C7"/>
			<stop  offset="0.9991" style="stop-color:#6D24FF"/>
		</linearGradient>
		<path class="st63" d="M486.4,144.9v12.2h-4.7v-20.4h4.5l8.6,12.3v-12.3h4.7v20.4h-4.5L486.4,144.9z"/>
		<linearGradient id="SVGID_63_" gradientUnits="userSpaceOnUse" x1="96.1233" y1="-8.3677" x2="790.1234" y2="251.6323">
			<stop  offset="0" style="stop-color:#00B9C7"/>
			<stop  offset="0.9991" style="stop-color:#6D24FF"/>
		</linearGradient>
		<path class="st64" d="M504.4,157.1l7.8-20.4h4.4l7.7,20.2l-4.6,0.5l-1.6-4.7h-7.4l-1.6,4.4H504.4z M512,149h4.7l-2.4-6.3L512,149z
			"/>
		<linearGradient id="SVGID_64_" gradientUnits="userSpaceOnUse" x1="99.5223" y1="-17.4402" x2="793.5223" y2="242.5598">
			<stop  offset="0" style="stop-color:#00B9C7"/>
			<stop  offset="0.9991" style="stop-color:#6D24FF"/>
		</linearGradient>
		<path class="st65" d="M533.9,144.9v12.2h-4.7v-20.4h4.5l8.6,12.3v-12.3h4.7v20.4h-4.5L533.9,144.9z"/>
		<linearGradient id="SVGID_65_" gradientUnits="userSpaceOnUse" x1="102.5445" y1="-25.5071" x2="796.5444" y2="234.4929">
			<stop  offset="0" style="stop-color:#00B9C7"/>
			<stop  offset="0.9991" style="stop-color:#6D24FF"/>
		</linearGradient>
		<path class="st66" d="M568.5,137.8l-1.4,3.2c-1.1-0.3-1.9-0.6-2.4-0.7s-1.2-0.2-1.9-0.2c-0.9,0-1.8,0.3-2.6,0.8
			c-0.8,0.6-1.5,1.4-1.9,2.4c-0.5,1-0.7,2.2-0.7,3.6c0,1.3,0.2,2.4,0.7,3.4s1.1,1.8,1.9,2.4c0.8,0.6,1.7,0.9,2.7,0.9
			c1.4,0,2.8-0.3,4.2-1l1.8,3.5c-0.8,0.4-1.7,0.8-2.8,1c-1.1,0.2-2.1,0.4-3.1,0.4c-2.1,0-3.9-0.4-5.5-1.3c-1.5-0.9-2.7-2.1-3.5-3.7
			c-0.8-1.6-1.2-3.4-1.2-5.4c0-2.1,0.4-3.9,1.3-5.5c0.9-1.6,2.1-2.9,3.6-3.8s3.3-1.4,5.3-1.4c0.9,0,1.8,0.1,2.9,0.4
			C566.8,137,567.7,137.3,568.5,137.8z"/>
		<linearGradient id="SVGID_66_" gradientUnits="userSpaceOnUse" x1="104.6786" y1="-31.2037" x2="798.6786" y2="228.7963">
			<stop  offset="0" style="stop-color:#00B9C7"/>
			<stop  offset="0.9991" style="stop-color:#6D24FF"/>
		</linearGradient>
		<path class="st67" d="M587.7,153.4l0.6,3.7h-14.6v-20.4h12.9l0.6,3.7h-8.8v4.6h6.5l0.6,3.7h-7.1v4.8H587.7z"/>
		<linearGradient id="SVGID_67_" gradientUnits="userSpaceOnUse" x1="107.4682" y1="-38.6496" x2="801.4681" y2="221.3504">
			<stop  offset="0" style="stop-color:#00B9C7"/>
			<stop  offset="0.9991" style="stop-color:#6D24FF"/>
		</linearGradient>
		<path class="st68" d="M607.3,146.3l-3.3,4.5l-1.9,0.3l-4.1-5.1v11.1h-4.7v-20.4h3.1l6.5,8.6l5.9-8.6h3v20.4h-4.7V146.3z"/>
		<linearGradient id="SVGID_68_" gradientUnits="userSpaceOnUse" x1="110.2725" y1="-46.135" x2="804.2725" y2="213.865">
			<stop  offset="0" style="stop-color:#00B9C7"/>
			<stop  offset="0.9991" style="stop-color:#6D24FF"/>
		</linearGradient>
		<path class="st69" d="M633.1,153.4l0.6,3.7h-14.6v-20.4h12.9l0.6,3.7h-8.8v4.6h6.5l0.6,3.7h-7.1v4.8H633.1z"/>
		<linearGradient id="SVGID_69_" gradientUnits="userSpaceOnUse" x1="113.0141" y1="-53.453" x2="807.0141" y2="206.547">
			<stop  offset="0" style="stop-color:#00B9C7"/>
			<stop  offset="0.9991" style="stop-color:#6D24FF"/>
		</linearGradient>
		<path class="st70" d="M643.6,144.9v12.2h-4.7v-20.4h4.5L652,149v-12.3h4.7v20.4h-4.5L643.6,144.9z"/>
		<linearGradient id="SVGID_70_" gradientUnits="userSpaceOnUse" x1="116.1323" y1="-61.7763" x2="810.1323" y2="198.2237">
			<stop  offset="0" style="stop-color:#00B9C7"/>
			<stop  offset="0.9991" style="stop-color:#6D24FF"/>
		</linearGradient>
		<path class="st71" d="M661.6,136.7h17l0.6,3.7h-6.8v16.7h-4.7v-16.7h-6.1V136.7z"/>
	</g>
	<linearGradient id="SVGID_71_" gradientUnits="userSpaceOnUse" x1="49.3547" y1="116.4686" x2="743.3547" y2="376.4685">
		<stop  offset="0" style="stop-color:#00B9C7"/>
		<stop  offset="0.9991" style="stop-color:#6D24FF"/>
	</linearGradient>
	<path class="st72" d="M190.3,191c-12.1,15.1-30.6,24.8-51.5,24.8c-36.3,0-65.8-29.5-65.8-65.8c0-36.3,29.5-65.8,65.8-65.8
		c20.8,0,39.4,9.7,51.5,24.8h5.3c-12.7-17.6-33.4-29-56.7-29c-38.7,0-70,31.3-70,70c0,38.7,31.3,70,70,70c23.3,0,44-11.4,56.7-29
		H190.3z"/>
	<g>
		<linearGradient id="SVGID_72_" gradientUnits="userSpaceOnUse" x1="48.152" y1="119.679" x2="742.152" y2="379.679">
			<stop  offset="0" style="stop-color:#00B9C7"/>
			<stop  offset="0.9991" style="stop-color:#6D24FF"/>
		</linearGradient>
		<path class="st73" d="M163.9,136.9h-30.6c-0.6,0-1,0.4-1,1v38.8c0,0.6,0.4,1,1,1h30.6c0.6,0,1-0.4,1-1v-38.8
			C164.9,137.3,164.5,136.9,163.9,136.9L163.9,136.9z M162.8,138.9v6.1h-28.6v-2h12.2v-2h-12.2v-2H162.8z M134.3,175.7v-28.6h28.6
			v28.6H134.3z M134.3,175.7"/>
		<linearGradient id="SVGID_73_" gradientUnits="userSpaceOnUse" x1="49.5564" y1="115.9303" x2="743.5564" y2="375.9303">
			<stop  offset="0" style="stop-color:#00B9C7"/>
			<stop  offset="0.9991" style="stop-color:#6D24FF"/>
		</linearGradient>
		<rect x="139.4" y="149.1" class="st74" width="3.1" height="2"/>
		<linearGradient id="SVGID_74_" gradientUnits="userSpaceOnUse" x1="50.1844" y1="114.2539" x2="744.1844" y2="374.2539">
			<stop  offset="0" style="stop-color:#00B9C7"/>
			<stop  offset="0.9991" style="stop-color:#6D24FF"/>
		</linearGradient>
		<rect x="144.5" y="149.1" class="st75" width="3.1" height="2"/>
		<linearGradient id="SVGID_75_" gradientUnits="userSpaceOnUse" x1="50.8124" y1="112.5776" x2="744.8124" y2="372.5775">
			<stop  offset="0" style="stop-color:#00B9C7"/>
			<stop  offset="0.9991" style="stop-color:#6D24FF"/>
		</linearGradient>
		<rect x="149.6" y="149.1" class="st76" width="3.1" height="2"/>
		<linearGradient id="SVGID_76_" gradientUnits="userSpaceOnUse" x1="51.4405" y1="110.9012" x2="745.4405" y2="370.9012">
			<stop  offset="0" style="stop-color:#00B9C7"/>
			<stop  offset="0.9991" style="stop-color:#6D24FF"/>
		</linearGradient>
		<rect x="154.7" y="149.1" class="st77" width="3.1" height="2"/>
		<linearGradient id="SVGID_77_" gradientUnits="userSpaceOnUse" x1="47.6917" y1="120.9076" x2="741.6917" y2="380.9076">
			<stop  offset="0" style="stop-color:#00B9C7"/>
			<stop  offset="0.9991" style="stop-color:#6D24FF"/>
		</linearGradient>
		<rect x="137.3" y="154.2" class="st78" width="4.1" height="2"/>
		<linearGradient id="SVGID_78_" gradientUnits="userSpaceOnUse" x1="48.4452" y1="118.8964" x2="742.4452" y2="378.8964">
			<stop  offset="0" style="stop-color:#00B9C7"/>
			<stop  offset="0.9991" style="stop-color:#6D24FF"/>
		</linearGradient>
		<rect x="143.5" y="154.2" class="st79" width="4.1" height="2"/>
		<linearGradient id="SVGID_79_" gradientUnits="userSpaceOnUse" x1="49.199" y1="116.8843" x2="743.199" y2="376.8843">
			<stop  offset="0" style="stop-color:#00B9C7"/>
			<stop  offset="0.9991" style="stop-color:#6D24FF"/>
		</linearGradient>
		<rect x="149.6" y="154.2" class="st80" width="4.1" height="2"/>
		<linearGradient id="SVGID_80_" gradientUnits="userSpaceOnUse" x1="49.9528" y1="114.8723" x2="743.9528" y2="374.8723">
			<stop  offset="0" style="stop-color:#00B9C7"/>
			<stop  offset="0.9991" style="stop-color:#6D24FF"/>
		</linearGradient>
		<rect x="155.7" y="154.2" class="st81" width="4.1" height="2"/>
		<linearGradient id="SVGID_81_" gradientUnits="userSpaceOnUse" x1="46.351" y1="124.4862" x2="740.351" y2="384.4861">
			<stop  offset="0" style="stop-color:#00B9C7"/>
			<stop  offset="0.9991" style="stop-color:#6D24FF"/>
		</linearGradient>
		<rect x="137.3" y="158.3" class="st82" width="4.1" height="2"/>
		<linearGradient id="SVGID_82_" gradientUnits="userSpaceOnUse" x1="47.1045" y1="122.4749" x2="741.1045" y2="382.4749">
			<stop  offset="0" style="stop-color:#00B9C7"/>
			<stop  offset="0.9991" style="stop-color:#6D24FF"/>
		</linearGradient>
		<rect x="143.5" y="158.3" class="st83" width="4.1" height="2"/>
		<linearGradient id="SVGID_83_" gradientUnits="userSpaceOnUse" x1="47.8583" y1="120.4629" x2="741.8583" y2="380.4629">
			<stop  offset="0" style="stop-color:#00B9C7"/>
			<stop  offset="0.9991" style="stop-color:#6D24FF"/>
		</linearGradient>
		<rect x="149.6" y="158.3" class="st84" width="4.1" height="2"/>
		<linearGradient id="SVGID_84_" gradientUnits="userSpaceOnUse" x1="48.6121" y1="118.4508" x2="742.6121" y2="378.4508">
			<stop  offset="0" style="stop-color:#00B9C7"/>
			<stop  offset="0.9991" style="stop-color:#6D24FF"/>
		</linearGradient>
		<rect x="155.7" y="158.3" class="st85" width="4.1" height="2"/>
		<linearGradient id="SVGID_85_" gradientUnits="userSpaceOnUse" x1="45.0095" y1="128.067" x2="739.0095" y2="388.067">
			<stop  offset="0" style="stop-color:#00B9C7"/>
			<stop  offset="0.9991" style="stop-color:#6D24FF"/>
		</linearGradient>
		<rect x="137.3" y="162.4" class="st86" width="4.1" height="2"/>
		<linearGradient id="SVGID_86_" gradientUnits="userSpaceOnUse" x1="45.763" y1="126.0558" x2="739.763" y2="386.0558">
			<stop  offset="0" style="stop-color:#00B9C7"/>
			<stop  offset="0.9991" style="stop-color:#6D24FF"/>
		</linearGradient>
		<rect x="143.5" y="162.4" class="st87" width="4.1" height="2"/>
		<linearGradient id="SVGID_87_" gradientUnits="userSpaceOnUse" x1="46.5168" y1="124.0437" x2="740.5168" y2="384.0437">
			<stop  offset="0" style="stop-color:#00B9C7"/>
			<stop  offset="0.9991" style="stop-color:#6D24FF"/>
		</linearGradient>
		<rect x="149.6" y="162.4" class="st88" width="4.1" height="2"/>
		<linearGradient id="SVGID_88_" gradientUnits="userSpaceOnUse" x1="47.2706" y1="122.0316" x2="741.2706" y2="382.0316">
			<stop  offset="0" style="stop-color:#00B9C7"/>
			<stop  offset="0.9991" style="stop-color:#6D24FF"/>
		</linearGradient>
		<rect x="155.7" y="162.4" class="st89" width="4.1" height="2"/>
		<linearGradient id="SVGID_89_" gradientUnits="userSpaceOnUse" x1="43.6688" y1="131.6456" x2="737.6688" y2="391.6456">
			<stop  offset="0" style="stop-color:#00B9C7"/>
			<stop  offset="0.9991" style="stop-color:#6D24FF"/>
		</linearGradient>
		<rect x="137.3" y="166.5" class="st90" width="4.1" height="2"/>
		<linearGradient id="SVGID_90_" gradientUnits="userSpaceOnUse" x1="44.4223" y1="129.6344" x2="738.4223" y2="389.6344">
			<stop  offset="0" style="stop-color:#00B9C7"/>
			<stop  offset="0.9991" style="stop-color:#6D24FF"/>
		</linearGradient>
		<rect x="143.5" y="166.5" class="st91" width="4.1" height="2"/>
		<linearGradient id="SVGID_91_" gradientUnits="userSpaceOnUse" x1="45.1761" y1="127.6223" x2="739.1761" y2="387.6223">
			<stop  offset="0" style="stop-color:#00B9C7"/>
			<stop  offset="0.9991" style="stop-color:#6D24FF"/>
		</linearGradient>
		<rect x="149.6" y="166.5" class="st92" width="4.1" height="2"/>
		<linearGradient id="SVGID_92_" gradientUnits="userSpaceOnUse" x1="45.9299" y1="125.6102" x2="739.9299" y2="385.6103">
			<stop  offset="0" style="stop-color:#00B9C7"/>
			<stop  offset="0.9991" style="stop-color:#6D24FF"/>
		</linearGradient>
		<rect x="155.7" y="166.5" class="st93" width="4.1" height="2"/>
		<linearGradient id="SVGID_93_" gradientUnits="userSpaceOnUse" x1="42.3281" y1="135.2241" x2="736.3281" y2="395.2241">
			<stop  offset="0" style="stop-color:#00B9C7"/>
			<stop  offset="0.9991" style="stop-color:#6D24FF"/>
		</linearGradient>
		<rect x="137.3" y="170.6" class="st94" width="4.1" height="2"/>
		<linearGradient id="SVGID_94_" gradientUnits="userSpaceOnUse" x1="43.0816" y1="133.2129" x2="737.0816" y2="393.2129">
			<stop  offset="0" style="stop-color:#00B9C7"/>
			<stop  offset="0.9991" style="stop-color:#6D24FF"/>
		</linearGradient>
		<rect x="143.5" y="170.6" class="st95" width="4.1" height="2"/>
		<linearGradient id="SVGID_95_" gradientUnits="userSpaceOnUse" x1="43.8354" y1="131.2009" x2="737.8354" y2="391.2008">
			<stop  offset="0" style="stop-color:#00B9C7"/>
			<stop  offset="0.9991" style="stop-color:#6D24FF"/>
		</linearGradient>
		<rect x="149.6" y="170.6" class="st96" width="4.1" height="2"/>
		<linearGradient id="SVGID_96_" gradientUnits="userSpaceOnUse" x1="44.5892" y1="129.1888" x2="738.5892" y2="389.1888">
			<stop  offset="0" style="stop-color:#00B9C7"/>
			<stop  offset="0.9991" style="stop-color:#6D24FF"/>
		</linearGradient>
		<rect x="155.7" y="170.6" class="st97" width="4.1" height="2"/>
		<linearGradient id="SVGID_97_" gradientUnits="userSpaceOnUse" x1="55.1043" y1="101.1217" x2="749.1042" y2="361.1217">
			<stop  offset="0" style="stop-color:#00B9C7"/>
			<stop  offset="0.9991" style="stop-color:#6D24FF"/>
		</linearGradient>
		<path class="st98" d="M105.7,130.8h11.2c0.6,0,1-0.4,1-1v-11.2h34.7v14.3h2v-15.3c0-0.6-0.4-1-1-1h-36.7c-0.1,0-0.2,0-0.3,0.1
			h-0.1c-0.1,0.1-0.2,0.1-0.3,0.2L104,129c-0.1,0.1-0.1,0.2-0.2,0.3v0.1c0,0.1-0.1,0.2-0.1,0.3V141h2V130.8z M115.9,128.7h-8.8
			l8.8-8.8V128.7z M115.9,128.7"/>
		<linearGradient id="SVGID_98_" gradientUnits="userSpaceOnUse" x1="42.1639" y1="135.6626" x2="736.1639" y2="395.6626">
			<stop  offset="0" style="stop-color:#00B9C7"/>
			<stop  offset="0.9991" style="stop-color:#6D24FF"/>
		</linearGradient>
		<path class="st99" d="M129.2,160.4h-11.2v-14.3c0-0.6-0.4-1-1-1h-12.2c-0.6,0-1,0.4-1,1v30.6c0,0.6,0.4,1,1,1h24.5
			c0.6,0,1-0.4,1-1v-15.3C130.2,160.8,129.8,160.4,129.2,160.4L129.2,160.4z M105.7,162.4h10.2v3.1h-10.2V162.4z M115.9,160.4h-10.2
			v-3.1h10.2V160.4z M115.9,155.3h-10.2v-3.1h10.2V155.3z M105.7,167.5h10.2v3.1h-10.2V167.5z M117.9,167.5h10.2v3.1h-10.2V167.5z
			 M128.1,165.5h-10.2v-3.1h10.2V165.5z M105.7,147.1h10.2v3.1h-10.2V147.1z M105.7,172.6h10.2v3.1h-10.2V172.6z M128.1,175.7h-10.2
			v-3.1h10.2V175.7z M128.1,175.7"/>
		<linearGradient id="SVGID_99_" gradientUnits="userSpaceOnUse" x1="59.2368" y1="90.091" x2="753.2368" y2="350.091">
			<stop  offset="0" style="stop-color:#00B9C7"/>
			<stop  offset="0.9991" style="stop-color:#6D24FF"/>
		</linearGradient>
		<rect x="142.4" y="121.6" class="st100" width="7.1" height="2"/>
		<linearGradient id="SVGID_100_" gradientUnits="userSpaceOnUse" x1="56.8699" y1="96.4088" x2="750.8699" y2="356.4088">
			<stop  offset="0" style="stop-color:#00B9C7"/>
			<stop  offset="0.9991" style="stop-color:#6D24FF"/>
		</linearGradient>
		<rect x="131.2" y="126.7" class="st101" width="18.4" height="2"/>
		<linearGradient id="SVGID_101_" gradientUnits="userSpaceOnUse" x1="53.3696" y1="105.7519" x2="747.3696" y2="365.7519">
			<stop  offset="0" style="stop-color:#00B9C7"/>
			<stop  offset="0.9991" style="stop-color:#6D24FF"/>
		</linearGradient>
		<rect x="148.6" y="141" class="st102" width="3.1" height="2"/>
	</g>
</g>
</svg>
